<?xml version="1.0" encoding="UTF-8"?>
<svg width="30px" height="30px" viewBox="0 0 30 30" version="1.1" xmlns="http://www.w3.org/2000/svg" xmlns:xlink="http://www.w3.org/1999/xlink">
    <!-- Generator: Sketch 52.2 (67145) - http://www.bohemiancoding.com/sketch -->
    <title>ic_ava_topbar</title>
    <desc>Created with Sketch.</desc>
    <g id="Page-1" stroke="none" stroke-width="1" fill="none" fill-rule="evenodd">
        <g id="0-H-Feeds-Wide" transform="translate(-1147.000000, -15.000000)">
            <g id="top_bar" transform="translate(60.000000, 0.000000)">
                <g id="ic_ava_topbar" transform="translate(1088.000000, 16.000000)">
                    <circle id="Oval" stroke="#FFFFFF" stroke-width="2" fill-opacity="0.495471014" fill="#FFFFFF" cx="14" cy="14" r="14"></circle>
                    <g id="3-profile" transform="translate(4.000000, 3.000000)" fill-rule="nonzero">
                        <g id="base_transparent" fill="#FFFFFF" opacity="0">
                            <g id="Group">
                                <rect id="Rectangle-path" x="0" y="0" width="20" height="20"></rect>
                            </g>
                        </g>
                        <g id="_3-profile" transform="translate(1.250000, 1.250000)" fill="#F47F22">
                            <path d="M8.75,0 C6.90217507,0.00108287541 5.20558995,1.02120086 4.33813103,2.65275631 C3.47067212,4.28431177 3.57377732,6.26128195 4.60625,7.79375 C4.71368457,8.01471139 4.94061331,8.15222921 5.18620798,8.14520199 C5.43180264,8.13817478 5.65049694,7.9879063 5.74512131,7.76116339 C5.83974567,7.53442047 5.79274403,7.27327175 5.625,7.09375 C4.66469219,5.6668216 4.79822096,3.76954565 5.94892461,2.49118856 C7.09962825,1.21283146 8.97245745,0.881173875 10.4921812,1.68662746 C12.0119049,2.49208105 12.7888543,4.22812127 12.3769662,5.89805058 C11.965078,7.56797989 10.4699637,8.74361548 8.75,8.75 C4.16875,8.75 0,12.625 0,16.875 C0,17.220178 0.279822031,17.5 0.625,17.5 C0.970177969,17.5 1.25,17.220178 1.25,16.875 C1.25,13.34375 4.89375,10 8.75,10 C11.5114237,10 13.75,7.76142375 13.75,5 C13.75,2.23857625 11.5114237,2.77555756e-16 8.75,0 Z" id="Shape"></path>
                            <path d="M13.4625,10.15625 C13.2738191,10.0367893 13.0357393,10.0270631 12.8379428,10.1307352 C12.6401464,10.2344073 12.5126834,10.4357275 12.5035678,10.6588603 C12.4944523,10.881993 12.6050691,11.0930393 12.79375,11.2125 C14.89375,12.55 16.25,14.76875 16.25,16.875 C16.25,17.220178 16.529822,17.5 16.875,17.5 C17.220178,17.5 17.5,17.220178 17.5,16.875 C17.5,14.31875 15.95,11.74375 13.4625,10.15625 Z" id="Shape"></path>
                        </g>
                    </g>
                </g>
            </g>
        </g>
    </g>
</svg>