<?xml version="1.0" encoding="UTF-8"?>
<svg width="20px" height="20px" viewBox="0 0 20 20" version="1.1" xmlns="http://www.w3.org/2000/svg" xmlns:xlink="http://www.w3.org/1999/xlink">
    <!-- Generator: Sketch 59.1 (86144) - https://sketch.com -->
    <title>ic_facebook@1x</title>
    <desc>Created with Sketch.</desc>
    <g id="Page-1" stroke="none" stroke-width="1" fill="none" fill-rule="evenodd">
        <g id="37-H-More-Option" transform="translate(-628.000000, -159.000000)">
            <g id="pop_up_share" transform="translate(608.000000, 49.000000)">
                <g id="Group-2" transform="translate(20.000000, 30.000000)">
                    <g id="ic_facebook" transform="translate(0.000000, 80.000000)">
                        <path d="M0.0377446534,10 C0.0377446534,4.47715223 4.48492459,0 9.97079965,0 C15.4566747,0 19.9038547,4.47715223 19.9038547,10 C19.9038547,15.5228478 15.4566747,20 9.97079965,20 C4.48492459,20 0.0377446534,15.5228478 0.0377446534,10 Z" id="Facebook" fill="#3B5998"></path>
                        <path d="M10.8013935,15.439891 L10.8013935,9.99936302 L12.2910106,9.99936302 L12.488417,8.12452696 L10.8013935,8.12452696 L10.8039244,7.18615346 C10.8039244,6.69716734 10.850007,6.43515741 11.5466239,6.43515741 L12.4778718,6.43515741 L12.4778718,4.56010902 L10.9880438,4.56010902 C9.19852083,4.56010902 8.56865514,5.46960622 8.56865514,6.99909451 L8.56865514,8.12473928 L7.45318229,8.12473928 L7.45318229,9.99957535 L8.56865514,9.99957535 L8.56865514,15.439891 L10.8013935,15.439891 Z" id="Path" fill="#FFFFFF"></path>
                        <path d="M19.9038547,10 C19.9038547,15.5228478 15.4566747,20 9.97079965,20 C7.93621854,20 6.04450915,19.3841711 4.46959129,18.3275918 L15.8511783,1.93980368 C18.3089591,3.76021678 19.9038547,6.69259909 19.9038547,10 Z" id="reflec" fill-opacity="0.08" fill="#000000"></path>
                    </g>
                </g>
            </g>
        </g>
    </g>
</svg>