<?xml version="1.0" encoding="UTF-8"?>
<svg width="20px" height="20px" viewBox="0 0 20 20" version="1.1" xmlns="http://www.w3.org/2000/svg" xmlns:xlink="http://www.w3.org/1999/xlink">
    <!-- Generator: Sketch 59.1 (86144) - https://sketch.com -->
    <title>ic_google@1x</title>
    <desc>Created with Sketch.</desc>
    <g id="Page-1" stroke="none" stroke-width="1" fill="none" fill-rule="evenodd">
        <g id="37-H-More-Option" transform="translate(-628.000000, -239.000000)">
            <g id="pop_up_share" transform="translate(608.000000, 49.000000)">
                <g id="Group-2" transform="translate(20.000000, 30.000000)">
                    <g id="ic_google" transform="translate(0.000000, 160.000000)">
                        <path d="M0.0377446534,9.91872159 C0.0377446534,4.44076265 4.48492459,0 9.97079965,0 C15.4566747,0 19.9038547,4.44076265 19.9038547,9.91872159 C19.9038547,15.3966805 15.4566747,19.8374432 9.97079965,19.8374432 C4.48492459,19.8374432 0.0377446534,15.3966805 0.0377446534,9.91872159 Z" id="Google-+" fill="#D34836"></path>
                        <path d="M19.5952158,7.63553106 L17.2462492,7.63553106 L17.2462492,10.2417505 L16.1390461,10.2417505 L16.1390461,7.63553106 L13.5555862,7.63553106 L13.5555862,6.55080975 L16.1390461,6.55080975 L16.1390461,3.96748863 L17.2462492,3.96748863 L17.2462492,6.55080975 L19.2185713,6.55080975 C19.3642439,6.90264986 19.4902536,7.26469667 19.5952158,7.63553106 Z" id="Shape" fill="#FFFFFF"></path>
                        <path d="M2.76650045,16.3378424 C3.04424623,15.8714466 3.47491222,15.4129076 4.11291792,15.0360951 C5.55247834,14.1553251 7.49130827,14.0389969 8.53977423,13.9725237 C8.21524905,13.5570662 7.84079692,13.1166812 7.84079692,12.393785 C7.84079692,12.0032549 7.95729314,11.7705987 8.07378936,11.4963967 C7.81583345,11.5213242 7.56619869,11.5462516 7.33320625,11.5462516 C4.8784645,11.5462516 3.48883104,9.71823841 3.48883104,7.91515264 C3.48883104,6.85158131 3.97977939,5.67002003 4.96999725,4.81500839 C6.29306144,3.72900235 7.8657604,3.54370828 9.11393417,3.54370828 L13.881958,3.54370828 L12.4007918,4.3754543 L10.9695525,4.3754543 C11.5021067,4.81500839 12.6088207,5.7398169 12.6088207,7.49969509 C12.6088207,9.2113802 11.6352452,10.0173678 10.6699908,10.7818097 C10.3621079,11.0809392 10.0209404,11.4049961 10.0209404,11.9118543 C10.0209404,12.4187125 10.3621079,12.7012236 10.6200639,12.9089524 L11.4521797,13.5570662 C12.4756822,14.4045996 13.3993308,15.1939689 13.3993308,16.7893259 C13.3993308,17.8414048 12.907648,18.8973648 11.9496407,19.7077412 C11.4341853,19.7916563 10.9054034,19.8359553 10.3665319,19.8374063 C11.3393144,19.4113046 11.8432741,18.6316825 11.8432741,17.6950234 C11.8432741,16.515124 11.0860487,15.8919376 9.32196313,14.6372558 C9.13889764,14.6206375 9.02240143,14.6206375 8.78940899,14.6206375 C8.58138003,14.6206375 7.33320625,14.6621833 6.35963071,14.9862402 C5.85204005,15.1690415 4.37087384,15.7257546 4.37087384,17.3709665 C4.37087384,17.5497608 4.38993488,17.7231028 4.4271244,17.8900504 C1.9873321,16.0827865 3.04424625,16.3378428 2.76650045,16.3378424 Z M10.5701369,8.56326642 C10.5701369,6.89312706 9.57991904,4.30648834 7.65773144,4.30648834 C7.05860802,4.30648834 6.40955766,4.60727961 6.03510553,5.07009932 C5.64401108,5.55535374 5.52751486,6.17854007 5.52751486,6.77679895 C5.52751486,8.33061019 6.42619998,10.8981379 8.42327801,10.8981379 C8.99743795,10.8981379 9.62152484,10.6156267 9.99597697,10.2500241 C10.5285311,9.71823841 10.5701369,8.97872397 10.5701369,8.56326642 Z" id="Path" fill="#FFFFFF"></path>
                        <path d="M19.9258399,9.97842864 C19.9258399,15.4563876 15.47866,19.8971502 9.9927849,19.8971502 C7.95820379,19.8971502 6.0664944,19.2863267 4.49157654,18.2383351 L15.8731635,1.98374432 C18.3309444,3.78936139 19.9258399,6.69790977 19.9258399,9.97842864 Z" id="reflec" fill-opacity="0.08" fill="#000000"></path>
                    </g>
                </g>
            </g>
        </g>
    </g>
</svg>