<?xml version="1.0" encoding="UTF-8"?>
<svg width="20px" height="20px" viewBox="0 0 20 20" version="1.1" xmlns="http://www.w3.org/2000/svg" xmlns:xlink="http://www.w3.org/1999/xlink">
    <!-- Generator: Sketch 52.2 (67145) - http://www.bohemiancoding.com/sketch -->
    <title>ic_more</title>
    <desc>Created with Sketch.</desc>
    <g id="Page-1" stroke="none" stroke-width="1" fill="none" fill-rule="evenodd">
        <g id="54-H-Discussion-Detail-Result" transform="translate(-752.000000, -126.000000)">
            <g id="activity-1" transform="translate(20.000000, 116.000000)">
                <g id="ic_more" transform="translate(732.000000, 10.000000)">
                    <polygon id="Shape" points="0 0 20 0 20 20 0 20"></polygon>
                    <path d="M10,6.66666667 C10.9166667,6.66666667 11.6666667,5.91666667 11.6666667,5 C11.6666667,4.08333333 10.9166667,3.33333333 10,3.33333333 C9.08333333,3.33333333 8.33333333,4.08333333 8.33333333,5 C8.33333333,5.91666667 9.08333333,6.66666667 10,6.66666667 Z M10,8.33333333 C9.08333333,8.33333333 8.33333333,9.08333333 8.33333333,10 C8.33333333,10.9166667 9.08333333,11.6666667 10,11.6666667 C10.9166667,11.6666667 11.6666667,10.9166667 11.6666667,10 C11.6666667,9.08333333 10.9166667,8.33333333 10,8.33333333 Z M10,13.3333333 C9.08333333,13.3333333 8.33333333,14.0833333 8.33333333,15 C8.33333333,15.9166667 9.08333333,16.6666667 10,16.6666667 C10.9166667,16.6666667 11.6666667,15.9166667 11.6666667,15 C11.6666667,14.0833333 10.9166667,13.3333333 10,13.3333333 Z" id="Shape" fill="#4A4A4A" fill-rule="nonzero"></path>
                </g>
            </g>
        </g>
    </g>
</svg>