<?xml version="1.0" encoding="UTF-8"?>
<svg width="20px" height="20px" viewBox="0 0 20 20" version="1.1" xmlns="http://www.w3.org/2000/svg" xmlns:xlink="http://www.w3.org/1999/xlink">
    <!-- Generator: Sketch 59.1 (86144) - https://sketch.com -->
    <title>ic_mail@1x</title>
    <desc>Created with Sketch.</desc>
    <g id="Page-1" stroke="none" stroke-width="1" fill="none" fill-rule="evenodd">
        <g id="37-H-More-Option" transform="translate(-628.000000, -119.000000)">
            <g id="pop_up_share" transform="translate(608.000000, 49.000000)">
                <g id="Group-2" transform="translate(20.000000, 30.000000)">
                    <g id="ic_mail" transform="translate(0.000000, 40.000000)">
                        <path d="M0.0754893069,10 C0.0754893069,4.47715223 4.52266924,0 10.0085443,0 C15.4944194,0 19.9415993,4.47715223 19.9415993,10 C19.9415993,15.5228478 15.4944194,20 10.0085443,20 C4.52266924,20 0.0754893069,15.5228478 0.0754893069,10 Z" id="Mail" fill="#54B9F0"></path>
                        <path d="M11.2262777,11.0688406 L15.8699545,14 L4.62873674,14 L9.27230378,11.0688406 L10.2493456,11.9948297 L11.2262777,11.0688406 Z M15.8699545,6.66666667 L15.8699545,13.5254755 L11.7776243,10.5461335 L15.8699545,6.66666667 Z M4.62873674,6.66666667 L8.72097913,10.5457164 L4.62873674,13.5254755 L4.62873674,6.66666667 Z M15.532718,6.66666667 L10.2493456,10.8183101 L4.96597327,6.66666667 L15.532718,6.66666667 Z" id="Shape" fill="#FFFFFF"></path>
                        <path d="M19.9415993,10 C19.9415993,15.5228478 15.4944194,20 10.0085443,20 C7.97396319,20 6.0822538,19.3841711 4.50733594,18.3275918 L15.8889229,1.93980368 C18.3467038,3.76021678 19.9415993,6.69259909 19.9415993,10 Z" id="reflec" fill-opacity="0.08" fill="#000000"></path>
                    </g>
                </g>
            </g>
        </g>
    </g>
</svg>