<?xml version="1.0" encoding="UTF-8"?>
<svg width="24px" height="24px" viewBox="0 0 24 24" version="1.1" xmlns="http://www.w3.org/2000/svg" xmlns:xlink="http://www.w3.org/1999/xlink">
    <!-- Generator: Sketch 52.2 (67145) - http://www.bohemiancoding.com/sketch -->
    <title>ic_notif</title>
    <desc>Created with Sketch.</desc>
    <g id="Page-1" stroke="none" stroke-width="1" fill="none" fill-rule="evenodd">
        <g id="0-H-Feeds-Wide" transform="translate(-1196.000000, -18.000000)">
            <g id="top_bar" transform="translate(60.000000, 0.000000)">
                <g id="ic_notif" transform="translate(1136.000000, 18.000000)">
                    <rect id="base" x="0" y="0" width="24" height="23.85"></rect>
                    <path d="M15.6064064,16.8125 L15.6064064,10.6415816 C15.6064064,8.38876705 13.9872753,6.5625 11.9899759,6.5625 C9.99267648,6.5625 8.37354538,8.38876705 8.37354538,10.6415816 L8.37354538,16.8125 L15.6064064,16.8125 Z M13.6093407,18.875 L10.9624611,18.875 L6.36740027,18.875 L4,18.875 L4,18.0552373 L6.36740027,16.375 L6.36740027,10.4375 C6.36740027,7.5871112 8.26940701,5.20584193 10.8062758,4.63181056 L10.8062758,3.18370013 C10.8062758,2.5299606 11.3362364,2 11.9899759,2 C12.6437154,2 13.173676,2.5299606 13.173676,3.18370013 L13.173676,4.63181056 C15.7105448,5.20584193 17.6125515,7.5871112 17.6125515,10.4375 L17.6125515,16.375 L17.6325997,16.375 L20,18.0552373 L20,18.875 L17.6125515,18.875 L13.6093407,18.875 Z M10.5103507,20.125 L14.0614511,20.125 C14.0614511,21.1605339 13.2665102,22 12.2859009,22 C11.3052916,22 10.5103507,21.1605339 10.5103507,20.125 Z" id="Combined-Shape" fill="#FFFFFF" fill-rule="nonzero"></path>
                </g>
            </g>
        </g>
    </g>
</svg>