<?xml version="1.0" encoding="UTF-8"?>
<svg width="20px" height="20px" viewBox="0 0 20 20" version="1.1" xmlns="http://www.w3.org/2000/svg" xmlns:xlink="http://www.w3.org/1999/xlink">
    <!-- Generator: Sketch 59.1 (86144) - https://sketch.com -->
    <title>ic_recom@1x</title>
    <desc>Created with Sketch.</desc>
    <g id="Page-1" stroke="none" stroke-width="1" fill="none" fill-rule="evenodd">
        <g id="37-H-More-Option" transform="translate(-628.000000, -79.000000)">
            <g id="pop_up_share" transform="translate(608.000000, 49.000000)">
                <g id="Group-2" transform="translate(20.000000, 30.000000)">
                    <g id="ic_recom">
                        <path d="M0,10 C0,4.47715223 4.47715223,0 10,0 C15.5228478,0 20,4.47715223 20,10 C20,15.5228478 15.5228478,20 10,20 C4.47715223,20 0,15.5228478 0,10 Z" id="Mail" fill="#FAAF3F"></path>
                        <path d="M12.2905679,10.2444194 L13.259745,13.3548545 C13.2751733,13.4034244 13.2845238,13.4549379 13.2845238,13.5084139 C13.2845238,13.780209 13.0750731,14 12.8155973,14 C12.711807,14 12.6173672,13.9651671 12.5397582,13.9067851 L10.0020384,11.9806702 L7.46338351,13.9067851 C7.38624207,13.9656577 7.29180223,14 7.18894697,14 C6.92853615,14 6.71955296,13.7797184 6.71955296,13.5084139 C6.71955296,13.4549379 6.72890344,13.4029338 6.74339668,13.3548545 L7.71350881,10.2444194 L5.19402242,8.33302262 C5.07667392,8.24373252 5,8.09851347 5,7.93465143 C5,7.66334691 5.20991824,7.4430653 5.46892649,7.4430653 L8.587311,7.4430653 L9.55181284,4.34734828 C9.61072086,4.14620026 9.78931499,4 10.0001683,4 C10.2110216,4 10.3896157,4.14620026 10.4485237,4.34734828 L11.4130255,7.4430653 L14.5309425,7.4430653 C14.7904183,7.4430653 14.999869,7.66334691 14.999869,7.93465143 C15.0036092,8.09851347 14.9269353,8.24373252 14.8091193,8.33302262 L12.2905679,10.2444194 Z" id="Recommend" fill="#FFFFFF"></path>
                        <path d="M20,10.0333309 C20,15.5377705 15.6779473,20 10.3464246,20 C8.36908912,20 6.53060547,19.3862237 5,18.3331661 L16.061351,2 C18.449979,3.81434549 20,6.73695391 20,10.0333309 Z" id="reflec" fill-opacity="0.08" fill="#000000"></path>
                    </g>
                </g>
            </g>
        </g>
    </g>
</svg>