<?xml version="1.0" encoding="UTF-8"?>
<svg width="20px" height="20px" viewBox="0 0 20 20" version="1.1" xmlns="http://www.w3.org/2000/svg" xmlns:xlink="http://www.w3.org/1999/xlink">
    <!-- Generator: Sketch 59.1 (86144) - https://sketch.com -->
    <title>ic_twitter@1x</title>
    <desc>Created with Sketch.</desc>
    <g id="Page-1" stroke="none" stroke-width="1" fill="none" fill-rule="evenodd">
        <g id="37-H-More-Option" transform="translate(-628.000000, -199.000000)">
            <g id="pop_up_share" transform="translate(608.000000, 49.000000)">
                <g id="Group-2" transform="translate(20.000000, 30.000000)">
                    <g id="ic_twitter" transform="translate(0.000000, 120.000000)">
                        <path d="M0,10 C0,4.47715223 4.4101201,0 9.85027954,0 C15.290439,0 19.7005591,4.47715223 19.7005591,10 C19.7005591,15.5228478 15.290439,20 9.85027954,20 C4.4101201,20 0,15.5228478 0,10 Z" id="Twitter" fill="#4099FF"></path>
                        <path d="M9.60648113,7.9626592 L9.62712151,8.30868176 L9.28311528,8.26631165 C8.03093261,8.1038929 6.93699281,7.55308148 6.00817599,6.62800075 L5.55408777,6.16899123 L5.43712566,6.50795211 C5.18944117,7.2635524 5.34768404,8.06152279 5.86369338,8.59821084 C6.13889836,8.89480161 6.07697724,8.93717172 5.60224865,8.7606296 C5.43712566,8.70413612 5.29264304,8.66176601 5.27888279,8.68295106 C5.23072192,8.73238286 5.39584491,9.37499618 5.52656728,9.62921684 C5.70545051,9.98230108 6.07009711,10.3283236 6.46914434,10.5331125 L6.80627044,10.6955313 L6.40722322,10.7025929 C6.02193624,10.7025929 6.00817599,10.7096546 6.04945674,10.85795 C6.18705923,11.3169595 6.73058907,11.8042158 7.33604003,12.0160663 L7.76260775,12.1643617 L7.39108103,12.3903356 C6.84067106,12.7151731 6.19393936,12.898777 5.54720765,12.9129003 C5.23760204,12.919962 4.98303744,12.9482087 4.98303744,12.9693938 C4.98303744,13.0400106 5.82241263,13.435465 6.31090147,13.5908221 C7.776368,14.0498316 9.51703951,13.8521044 10.8242632,13.0682574 C11.75308,12.5103843 12.6818968,11.4016998 13.1153447,10.3283236 C13.3492689,9.75632717 13.5831931,8.7111978 13.5831931,8.20981817 C13.5831931,7.88498067 13.6038335,7.84261056 13.9891205,7.45421789 C14.2161646,7.22824397 14.4294484,6.981085 14.4707292,6.91046815 C14.5395304,6.77629614 14.5326503,6.77629614 14.181764,6.89634478 C13.5969534,7.10819533 13.5143919,7.07994859 13.8033571,6.76217277 C14.016641,6.53619885 14.2712056,6.12662113 14.2712056,6.00657248 C14.2712056,5.98538743 14.1680037,6.02069585 14.0510416,6.08425102 C13.9271994,6.15486786 13.6519944,6.26079314 13.4455906,6.3243483 L13.0740639,6.44439695 L12.7369378,6.21136134 C12.5511744,6.08425102 12.2897297,5.94301732 12.1521272,5.90064721 C11.8012409,5.80178362 11.2645912,5.81590699 10.9481054,5.92889395 C10.0880899,6.24666977 9.54456001,7.06582522 9.60648113,7.9626592 Z" id="Path" fill="#FFFFFF"></path>
                        <path d="M19.7005591,10 C19.7005591,15.5228478 15.290439,20 9.85027954,20 C7.83265327,20 5.95670813,19.3841711 4.39491458,18.3275918 L15.681655,1.93980368 C18.1189544,3.76021678 19.7005591,6.69259909 19.7005591,10 Z" id="reflec" fill-opacity="0.08" fill="#000000"></path>
                    </g>
                </g>
            </g>
        </g>
    </g>
</svg>