<?xml version="1.0" encoding="UTF-8"?>
<svg width="82px" height="30px" viewBox="0 0 82 30" version="1.1" xmlns="http://www.w3.org/2000/svg" xmlns:xlink="http://www.w3.org/1999/xlink">
    <!-- Generator: Sketch 52.2 (67145) - http://www.bohemiancoding.com/sketch -->
    <title>logo_nav</title>
    <desc>Created with Sketch.</desc>
    <g id="Page-1" stroke="none" stroke-width="1" fill="none" fill-rule="evenodd" stroke-linecap="round" stroke-linejoin="round">
        <g id="0-H-Feeds-Wide" transform="translate(-79.000000, -15.000000)" fill="#FFFFFF" stroke="#FFFFFF" stroke-width="0.5">
            <g id="top_bar" transform="translate(60.000000, 0.000000)">
                <g id="topbar_logo_display">
                    <path d="M49.8386351,25.2786279 C53.6700055,26.4950698 56.4556962,30.094907 56.4556962,34.3372093 L56.4556962,35 L55.1348376,35 L55.1348376,34.3372093 C55.1348376,30.0533721 51.8326912,26.5357209 47.6499725,26.1963721 L47.6499725,35 L46.3291139,35 L46.3291139,26.1627907 L46.3291139,24.8372093 L46.3291139,16 L47.6499725,16 L47.6499725,24.774907 C49.3992295,24.4607442 50.7319758,22.9257209 50.7319758,21.0813953 L52.0528343,21.0813953 C52.0528343,22.8236512 51.1740231,24.3626512 49.8386351,25.2786279 Z M33.164557,30 C33.164557,27.2430435 35.4359934,25 38.2278481,25 C40.7955971,25 42.9177766,26.8986957 43.243148,29.3478261 L43.2911392,29.3478261 L43.2911392,35 L41.9702807,35 L41.9702807,30 C41.9702807,27.9621739 40.2914695,26.3043478 38.2278481,26.3043478 C36.1642267,26.3043478 34.4854155,27.9621739 34.4854155,30 C34.4854155,32.0378261 36.1642267,33.6956522 38.2278481,33.6956522 L39.5487067,33.6956522 L40.8695652,33.6956522 L40.8695652,35 L39.5487067,35 L38.2278481,35 C35.4359934,35 33.164557,32.7569565 33.164557,30 Z M74.9917446,26.643913 C75.9185471,25.6369565 77.2508531,25 78.7341772,25 L78.7341772,26.3043478 C76.6705559,26.3043478 74.9917446,27.9621739 74.9917446,30 L74.9917446,35 L73.6708861,35 L73.6708861,25 L74.9917446,25 L74.9917446,26.643913 Z M59.4936709,30 C59.4936709,27.2430435 61.7651073,25 64.556962,25 C67.1247111,25 69.2468905,26.8986957 69.572262,29.3478261 L69.6202532,29.3478261 L69.6202532,35 L68.2993946,35 L68.2993946,30 C68.2993946,27.9621739 66.6205834,26.3043478 64.556962,26.3043478 C62.4933407,26.3043478 60.8145294,27.9621739 60.8145294,30 C60.8145294,32.0378261 62.4933407,33.6956522 64.556962,33.6956522 L65.8778206,33.6956522 L67.1986791,33.6956522 L67.1986791,35 L65.8778206,35 L64.556962,35 C61.7651073,35 59.4936709,32.7569565 59.4936709,30 Z M28.8057237,38.8640777 L28.8057237,21 L30.1265823,21 L30.1265823,39.5339806 L30.0785911,39.5339806 C29.7532196,42.0496893 27.6310402,44 25.0632911,44 L25.0632911,42.6601942 C27.1269125,42.6601942 28.8057237,40.957301 28.8057237,38.8640777 Z M89.8734177,30 C89.8734177,27.2430435 92.1448542,25 94.9367089,25 C97.5044579,25 99.6266373,26.8986957 99.9520088,29.3478261 L100,29.3478261 L100,35 L98.6791414,35 L98.6791414,30 C98.6791414,27.9621739 97.0003302,26.3043478 94.9367089,26.3043478 C92.8730875,26.3043478 91.1942763,27.9621739 91.1942763,30 C91.1942763,32.0378261 92.8730875,33.6956522 94.9367089,33.6956522 L96.2575674,33.6956522 L97.578426,33.6956522 L97.578426,35 L96.2575674,35 L94.9367089,35 C92.1448542,35 89.8734177,32.7569565 89.8734177,30 Z M25.0632911,28.8823529 L25.0632911,35 L21.3808976,35 L20,35 L20,27 L21.3808976,27 L21.3808976,28.8823529 L25.0632911,28.8823529 Z M20,25 L21.0126582,25 L21.0126582,26 L20,26 L20,25 Z M83.0930105,29.8888889 C83.0930105,31.972 84.7718217,33.6666667 86.835443,33.6666667 L86.835443,35 C84.0435883,35 81.7721519,32.7071111 81.7721519,29.8888889 L81.7721519,21 L83.0930105,21 L83.0930105,24.7777778 L84.413869,24.7777778 L84.413869,26.1111111 L83.0930105,26.1111111 L83.0930105,29.8888889 Z" id="logo_nav"></path>
                </g>
            </g>
        </g>
    </g>
</svg>