<?xml version="1.0" encoding="UTF-8"?>
<svg width="60px" height="60px" viewBox="0 0 60 60" version="1.1" xmlns="http://www.w3.org/2000/svg" xmlns:xlink="http://www.w3.org/1999/xlink">
    <!-- Generator: Sketch 52.2 (67145) - http://www.bohemiancoding.com/sketch -->
    <title>ic_audio</title>
    <desc>Created with Sketch.</desc>
    <g id="Page-1" stroke="none" stroke-width="1" fill="none" fill-rule="evenodd">
        <g id="5-H-Landing-Audio-Detail-Category" transform="translate(-40.000000, -60.000000)">
            <g id="left" transform="translate(40.000000, 60.000000)">
                <g id="data">
                    <g id="ic_audio">
                        <polygon id="Path" points="0 0 60 0 60 60 0 60"></polygon>
                        <path d="M28.6,8.04516293 C17.4466667,8.76305766 9,18.4662156 9,29.5588471 L9,45.0514787 C9,48.8956892 12.1266667,51.9988471 16,51.9988471 L18.3333333,51.9988471 C20.9,51.9988471 23,49.9146366 23,47.3672682 L23,38.1041103 C23,35.5567419 20.9,33.4725313 18.3333333,33.4725313 L13.6666667,33.4725313 L13.6666667,29.5125313 C13.6666667,20.6198998 20.5733333,12.8851629 29.51,12.6304261 C38.7733333,12.3756892 46.3333333,19.7167419 46.3333333,28.8409524 L46.3333333,33.4725313 L41.6666667,33.4725313 C39.1,33.4725313 37,35.5567419 37,38.1041103 L37,47.3672682 C37,49.9146366 39.1,51.9988471 41.6666667,51.9988471 L44,51.9988471 C47.8733333,51.9988471 51,48.8956892 51,45.0514787 L51,28.8409524 C51,16.8683208 40.8266667,7.25779451 28.6,8.04516293 Z" id="Path" fill="#FFFFFF"></path>
                    </g>
                </g>
            </g>
        </g>
    </g>
</svg>