<?xml version="1.0" encoding="UTF-8"?>
<svg width="72px" height="72px" viewBox="0 0 72 72" version="1.1" xmlns="http://www.w3.org/2000/svg" xmlns:xlink="http://www.w3.org/1999/xlink">
    <!-- Generator: Sketch 52.2 (67145) - http://www.bohemiancoding.com/sketch -->
    <title>ic_borrow_audio_empty</title>
    <desc>Created with Sketch.</desc>
    <g id="Page-1" stroke="none" stroke-width="1" fill="none" fill-rule="evenodd">
        <g id="76-H-Audio-Empty-List-Still-Playing" transform="translate(-365.000000, -279.000000)">
            <g id="pop_up_still_borrow_empty">
                <g id="ic_borrow_audio_empty" transform="translate(365.000000, 279.000000)">
                    <polygon id="Path" points="0 0 72 0 72 72 0 72"></polygon>
                    <path d="M23.4545455,-5.68434189e-14 C19.5545455,-5.68434189e-14 16.3636364,3.24 16.3636364,7.2 L16.3636364,18.612 C16.3636364,20.52 17.1081818,22.356 18.4554545,23.724 L30.5454545,36 L18.42,48.312 C17.1081818,49.68 16.3636364,51.516 16.3636364,53.424 L16.3636364,64.8 C16.3636364,68.76 19.5545455,72 23.4545455,72 L51.8181818,72 C55.7181818,72 58.9090909,68.76 58.9090909,64.8 L58.9090909,53.424 C58.9090909,51.516 58.1645455,49.68 56.8527273,48.348 L44.7272727,36 L56.8172727,23.76 C58.1645455,22.392 58.9090909,20.556 58.9090909,18.648 L58.9090909,7.2 C58.9090909,3.24 55.7181818,-5.68434189e-14 51.8181818,-5.68434189e-14 L23.4545455,-5.68434189e-14 Z M52.3636364,53.2363636 L52.3636364,61.9636364 C52.3636364,63.8836364 50.7068182,65.4545455 48.6818182,65.4545455 L26.5909091,65.4545455 C24.5659091,65.4545455 22.9090909,63.8836364 22.9090909,61.9636364 L22.9090909,53.2363636 L37.6363636,39.2727273 L52.3636364,53.2363636 Z M37.6363636,32.7272727 L22.9090909,18.7636364 L22.9090909,10.0363636 C22.9090909,8.11636364 24.5659091,6.54545455 26.5909091,6.54545455 L48.6818182,6.54545455 C50.7068182,6.54545455 52.3636364,8.11636364 52.3636364,10.0363636 L52.3636364,18.7636364 L37.6363636,32.7272727 Z" id="Shape" fill="#9B9B9B" fill-rule="nonzero"></path>
                </g>
            </g>
        </g>
    </g>
</svg>