<?xml version="1.0" encoding="UTF-8"?>
<svg width="130px" height="72px" viewBox="0 0 130 72" version="1.1" xmlns="http://www.w3.org/2000/svg" xmlns:xlink="http://www.w3.org/1999/xlink">
    <!-- Generator: Sketch 52.2 (67145) - http://www.bohemiancoding.com/sketch -->
    <title>ic_borrow_empty</title>
    <desc>Created with Sketch.</desc>
    <g id="Page-1" stroke="none" stroke-width="1" fill="none" fill-rule="evenodd">
        <g id="21-H-Borrower-Empty" transform="translate(-336.000000, -279.000000)">
            <g id="pop_up_still_borrow_empty">
                <g id="ic_borrow_empty" transform="translate(336.000000, 279.000000)">
                    <polygon id="Shape" points="0 0 130 0 130 72 0 72"></polygon>
                    <path d="M113.235211,22.2357349 C108.306905,15.2529176 101.872506,13.0909091 94.7188985,13.0909091 C87.6011186,13.0909091 81.8182541,15.1721287 77.7617565,19.3357737 C76.5223817,20.5982516 75.4993004,22.0102493 74.6460691,23.5380044 C72.2575524,22.593859 71.4631494,21.6955342 67.6906199,21.6641833 C64.1197873,21.6943284 63.4740032,22.4937772 61.1080447,23.3993368 C60.2999298,22.0560699 59.3511579,20.799621 58.228555,19.6529004 C53.9995534,15.3168253 48.1689187,13.1487877 40.7313429,13.1487877 C33.7409506,13.1487877 28.046992,15.2685931 23.6481404,19.5082038 C22.7763317,20.3462383 22.0093525,21.2662676 21.3020861,22.2357349 L15.2485231,22.2357349 C12.4950941,22.2357349 10.2631579,24.2602816 10.2631579,26.757504 C10.2631579,29.2547263 12.4950941,31.2792731 15.2485231,31.2792731 L17.4552472,31.2792731 C17.2402807,32.4561388 17.1128931,33.624564 17.1128931,34.7845485 C17.1128931,37.4542009 17.3530718,39.7669351 17.8307751,41.722751 C18.3098054,43.6785668 19.0051292,45.5198312 19.9180734,47.2441325 C20.8310175,48.9696396 21.9576013,50.544421 23.2964976,51.9708884 C24.6353939,53.3985616 26.1693525,54.6260712 27.9010271,55.6570346 C29.6340287,56.6879979 31.5501499,57.4898583 33.6533716,58.0565867 C35.7565933,58.6245209 38.3016906,58.9090909 41.2860096,58.9090909 C44.2703285,58.9090909 47.2188198,58.3073942 50.1301563,57.1027949 C53.0414928,55.8981956 55.5374928,54.2558891 57.6194833,52.1734637 C62.0395662,47.760217 64.2489442,42.2774213 64.2489442,35.7238706 C64.2489442,34.0863873 64.1242105,32.5260755 63.8773971,31.0417295 C65.5015885,30.2893071 65.3578352,29.4850351 67.687966,29.516386 C70.268891,29.516386 70.3785859,30.4291805 72.1142414,31.2310409 C71.9151983,32.6153051 71.7984264,34.057448 71.7984264,35.579174 C71.7984264,52.1626114 82.6502541,58.9078851 95.9304072,58.9078851 C105.91308,58.9078851 110.724615,55.0263985 113.942477,50.4973946 C116.138586,47.4032987 116.305782,43.9583136 112.89153,43.1190733 C109.381737,42.2557168 108.529833,45.3196675 107.51206,46.6894621 C105.091696,49.9475475 102.309074,52.0335903 95.9901201,52.0335903 C85.8641361,52.0335903 80.4342414,44.0391025 80.4342414,35.579174 C80.4342414,30.87774 81.9482956,27.555747 83.9878235,24.7413979 C85.0520404,23.2377589 87.7656608,19.6697817 95.2430452,19.6697817 C97.4829431,19.6697817 104.799766,20.5476078 108.127766,28.3853409 C108.963747,30.1313466 110.739211,31.2780673 112.810586,31.2780673 L114.75015,31.2780673 C117.502252,31.2780673 119.736842,29.2535205 119.736842,26.7562982 C119.736842,24.2590758 117.504906,22.2357349 114.752804,22.2357349 L113.235211,22.2357349 Z M51.9494099,47.376771 C49.2928485,50.6336506 45.5229729,52.2626933 40.6358022,52.2626933 C35.7698628,52.2626933 31.9986603,50.556479 29.3221946,47.1452564 C28.1106858,45.5849447 27.2123381,43.8112054 26.6284785,41.8264502 C26.0446188,39.841695 25.751362,37.7411826 25.751362,35.523707 C25.751362,30.8982387 27.0902584,27.1313036 29.7667241,24.2204901 C32.4644211,21.2530037 36.0976204,19.7686577 40.6663222,19.7686577 C45.403547,19.7686577 49.1442297,21.3579088 51.8857161,24.5388226 C54.3711005,27.4677232 55.6157831,31.1876319 55.6157831,35.6973429 C55.6157831,40.4771543 54.3923317,44.3706989 51.9494099,47.376771 L51.9494099,47.376771 Z" id="Read" fill="#9B9B9B"></path>
                </g>
            </g>
        </g>
    </g>
</svg>