<?xml version="1.0" encoding="UTF-8"?>
<svg width="22px" height="22px" viewBox="0 0 22 22" version="1.1" xmlns="http://www.w3.org/2000/svg" xmlns:xlink="http://www.w3.org/1999/xlink">
    <!-- Generator: Sketch 52.2 (67145) - http://www.bohemiancoding.com/sketch -->
    <title>ic_borrow_audio</title>
    <desc>Created with Sketch.</desc>
    <g id="Page-1" stroke="none" stroke-width="1" fill="none" fill-rule="evenodd">
        <g id="62-H-Detail-Audio" transform="translate(-557.000000, -271.000000)">
            <g id="content">
                <g id="item" transform="translate(40.000000, 60.000000)">
                    <g id="activity_counter" transform="translate(246.000000, 204.000000)">
                        <g id="borrow" transform="translate(271.000000, 0.000000)">
                            <g id="ic_borrow_audio" transform="translate(0.000000, 7.000000)">
                                <polygon id="Path" points="0 0 22 0 22 22 0 22"></polygon>
                                <path d="M7.16666667,-5.68434189e-14 C5.975,-5.68434189e-14 5,0.99 5,2.2 L5,5.687 C5,6.27 5.2275,6.831 5.63916667,7.249 L9.33333333,11 L5.62833333,14.762 C5.2275,15.18 5,15.741 5,16.324 L5,19.8 C5,21.01 5.975,22 7.16666667,22 L15.8333333,22 C17.025,22 18,21.01 18,19.8 L18,16.324 C18,15.741 17.7725,15.18 17.3716667,14.773 L13.6666667,11 L17.3608333,7.26 C17.7725,6.842 18,6.281 18,5.698 L18,2.2 C18,0.99 17.025,-5.68434189e-14 15.8333333,-5.68434189e-14 L7.16666667,-5.68434189e-14 Z M16,16.2666667 L16,18.9333333 C16,19.52 15.49375,20 14.875,20 L8.125,20 C7.50625,20 7,19.52 7,18.9333333 L7,16.2666667 L11.5,12 L16,16.2666667 Z M11.5,10 L7,5.73333333 L7,3.06666667 C7,2.48 7.50625,2 8.125,2 L14.875,2 C15.49375,2 16,2.48 16,3.06666667 L16,5.73333333 L11.5,10 Z" id="Shape" fill="#F47F22" fill-rule="nonzero"></path>
                            </g>
                        </g>
                    </g>
                </g>
            </g>
        </g>
    </g>
</svg>