<?xml version="1.0" encoding="UTF-8"?>
<svg width="38px" height="22px" viewBox="0 0 38 22" version="1.1" xmlns="http://www.w3.org/2000/svg" xmlns:xlink="http://www.w3.org/1999/xlink">
    <!-- Generator: Sketch 52.2 (67145) - http://www.bohemiancoding.com/sketch -->
    <title>ic_borrow_counter</title>
    <desc>Created with Sketch.</desc>
    <g id="Page-1" stroke="none" stroke-width="1" fill="none" fill-rule="evenodd">
        <g id="18-H-Detail-Book" transform="translate(-573.000000, -267.000000)">
            <g id="item" transform="translate(40.000000, 60.000000)">
                <g id="activity_counter" transform="translate(250.000000, 200.000000)">
                    <g id="borrow" transform="translate(283.000000, 0.000000)">
                        <g id="ic_borrow_counter" transform="translate(0.000000, 7.000000)">
                            <polygon id="Shape" points="0 0 38 0 38 22 0 22"></polygon>
                            <path d="M33.0995232,6.79425233 C31.6589414,4.66061372 29.7781172,4 27.6870626,4 C25.6064808,4 23.9161051,4.63592821 22.7303596,5.90815306 C22.3680808,6.29391021 22.0690263,6.72535397 21.8196202,7.19216801 C21.1214384,6.90367914 20.8892283,6.62919101 19.7864889,6.61961156 C18.7427071,6.62882257 18.5539394,6.87309858 17.8623515,7.14979736 C17.6261333,6.7393547 17.3488,6.35543976 17.0206545,6.0050529 C15.7844848,4.68014106 14.0801455,4.01768514 11.9060848,4.01768514 C9.86273939,4.01768514 8.19835152,4.66540344 6.91253333,5.96084004 C6.65769697,6.21690615 6.43350303,6.49802621 6.22676364,6.79425233 L4.45726061,6.79425233 C3.65241212,6.79425233 3,7.41286383 3,8.17590399 C3,8.93894415 3.65241212,9.55755566 4.45726061,9.55755566 L5.10230303,9.55755566 C5.03946667,9.91715353 5.0022303,10.2741723 5.0022303,10.628612 C5.0022303,11.4443392 5.07243636,12.1510079 5.21207273,12.7486183 C5.35209697,13.3462287 5.55534545,13.9088373 5.82220606,14.4357071 C6.08906667,14.9629454 6.41837576,15.4441286 6.80974545,15.8799937 C7.20111515,16.3162272 7.64950303,16.6912995 8.15568485,17.0063161 C8.66225455,17.3213327 9.22235152,17.5663456 9.83713939,17.7395126 C10.4519273,17.9130481 11.1958788,18 12.0682182,18 C12.9405576,18 13.8024242,17.8161482 14.6534303,17.4480762 C15.5044364,17.0800042 16.2340364,16.5781883 16.8426182,15.9418917 C18.1346424,14.5933997 18.7804606,12.918101 18.7804606,10.9156271 C18.7804606,10.415285 18.744,9.93852308 18.6718545,9.48497289 C19.1466182,9.25506606 19.104598,9.00931628 19.7857131,9.01889573 C20.5401374,9.01889573 20.572202,9.29780515 21.0795475,9.54281804 C21.0213657,9.96578767 20.9872323,10.4064424 20.9872323,10.8714143 C20.9872323,15.9385757 24.1593051,17.9996316 28.041196,17.9996316 C30.9592081,17.9996316 32.3656566,16.8136218 33.3062626,15.4297595 C33.948202,14.4843413 33.9970747,13.4317069 32.9990626,13.1752724 C31.9731232,12.911469 31.7241051,13.8476762 31.426602,14.2662245 C30.7191111,15.2617506 29.9057293,15.8991526 28.0586505,15.8991526 C25.0987475,15.8991526 23.5115475,13.4563924 23.5115475,10.8714143 C23.5115475,9.43486499 23.9541172,8.41981157 24.5502869,7.55987157 C24.8613657,7.10042634 25.6545778,6.01021106 27.8402747,6.01021106 C28.4950141,6.01021106 30.6337778,6.27843571 31.6065778,8.67329859 C31.8509414,9.20680036 32.3699232,9.55718722 32.975402,9.55718722 L33.5423515,9.55718722 C34.3468121,9.55718722 35,8.93857571 35,8.17553555 C35,7.41249539 34.3475879,6.79425233 33.5431273,6.79425233 L33.0995232,6.79425233 Z M15.1852121,14.4762356 C14.4086788,15.4713932 13.3067152,15.9691563 11.8781576,15.9691563 C10.4558061,15.9691563 9.35345455,15.447813 8.57110303,14.405495 C8.2169697,13.9287331 7.95437576,13.3867572 7.78370909,12.7803042 C7.61304242,12.1738513 7.52732121,11.532028 7.52732121,10.854466 C7.52732121,9.44112848 7.91869091,8.29012053 8.70104242,7.4007053 C9.4896,6.49397337 10.5516121,6.04042318 11.8870788,6.04042318 C13.2718061,6.04042318 14.3652364,6.52602769 15.1665939,7.49797358 C15.8930909,8.39291542 16.2569212,9.52955419 16.2569212,10.9075214 C16.2569212,12.3680194 15.899297,13.5577136 15.1852121,14.4762356 L15.1852121,14.4762356 Z" id="Read" fill="#F47F22" fill-rule="nonzero"></path>
                        </g>
                    </g>
                </g>
            </g>
        </g>
    </g>
</svg>