<?xml version="1.0" encoding="UTF-8"?>
<svg width="60px" height="60px" viewBox="0 0 60 60" version="1.1" xmlns="http://www.w3.org/2000/svg" xmlns:xlink="http://www.w3.org/1999/xlink">
    <!-- Generator: Sketch 52.2 (67145) - http://www.bohemiancoding.com/sketch -->
    <title>ic_book</title>
    <desc>Created with Sketch.</desc>
    <g id="Page-1" stroke="none" stroke-width="1" fill="none" fill-rule="evenodd">
        <g id="5-H-Landing-Audio-Detail-Category" transform="translate(-40.000000, -60.000000)">
            <g id="left" transform="translate(40.000000, 60.000000)">
                <g id="data">
                    <g id="ic_book">
                        <polygon id="Shape" points="0 0 60 0 60 60 0 60"></polygon>
                        <path d="M52.9763276,10.0969526 C33.0605214,10.0969526 29.6653956,14.9747029 29.0990693,16.469467 C29.0131765,16.6972585 28.9688143,16.9391693 28.9688143,17.1820214 L28.9688143,44.5282974 C23.2262662,42.3313331 13.6525211,42.0291799 9.24178355,42.0150606 L9.24178355,14.2499118 C16.1556831,14.3760442 20.0255791,15.1130721 22.0964454,15.7399694 C23.2168274,16.0797741 24.402337,15.4500529 24.7421328,14.3318037 C25.0828724,13.2135545 24.4504748,12.0322391 23.3291488,11.6924344 C19.6754007,10.5854806 14.0706586,10 7.12089178,10 C5.94954033,10 5,10.9469349 5,12.1150724 L5,44.1480174 C5,44.7174962 5.230306,45.2625015 5.6380609,45.660666 C6.04675967,46.0588305 6.61874917,46.2772091 7.16902951,46.2621485 C14.1338984,46.1002471 26.3108565,46.8391575 29.3491968,49.4794682 C29.7522323,49.8286857 30.2477677,50 30.7423593,50 C31.0651653,50 31.3841957,49.9209319 31.6786854,49.7759736 C32.4564401,49.4945288 33.0161592,48.7584422 33.0161592,47.8849276 L33.0161592,17.7599718 C33.7136843,17.1161313 37.4882487,14.4005177 50.9526551,14.1520179 L50.9526551,42.3021532 C48.0190852,42.6156018 42.2793687,43.4382869 37.8657996,45.3660431 C36.8416929,45.8131545 36.3754177,47.0029415 36.8228154,48.0242381 C37.271157,49.0455348 38.4642176,49.5095894 39.4883242,49.0634192 C44.8891888,46.7064361 53.0225775,46.1670785 53.103751,46.162372 C54.1703321,46.0945994 55,45.2126132 55,44.1480174 L55,12.1150724 C55,11.0005883 54.093878,10.0969526 52.9763276,10.0969526" id="Fill-1" fill="#FFFFFF"></path>
                    </g>
                </g>
            </g>
        </g>
    </g>
</svg>