<?xml version="1.0" encoding="UTF-8"?>
<svg width="20px" height="20px" viewBox="0 0 20 20" version="1.1" xmlns="http://www.w3.org/2000/svg" xmlns:xlink="http://www.w3.org/1999/xlink">
    <!-- Generator: Sketch 52.2 (67145) - http://www.bohemiancoding.com/sketch -->
    <title>ic_comment_review</title>
    <desc>Created with Sketch.</desc>
    <g id="Page-1" stroke="none" stroke-width="1" fill="none" fill-rule="evenodd">
        <g id="26-H-Detail-Review" transform="translate(-296.000000, -366.000000)">
            <g id="item" transform="translate(40.000000, 60.000000)">
                <g id="Group-2" transform="translate(246.000000, 200.000000)">
                    <g id="n1">
                        <g id="ic_comment_review" transform="translate(10.000000, 106.000000)">
                            <polygon id="Shape" opacity="0.87" points="0 0 20 0 20 20 0 20"></polygon>
                            <path d="M6.00341076,10.2969602 C5.65297383,10.2969602 5.36856126,10.0066951 5.36856126,9.64904703 C5.36856126,9.29096701 5.65297383,9.00113385 6.00341076,9.00113385 L10.6111485,9.00113385 C10.9615854,9.00113385 11.245998,9.29096701 11.245998,9.64904703 C11.245998,10.0066951 10.9615854,10.2969602 10.6111485,10.2969602 L6.00341076,10.2969602 Z M6.00341076,12.4387452 C5.65297383,12.4387452 5.36856126,12.1484801 5.36856126,11.790832 C5.36856126,11.432752 5.65297383,11.1429188 6.00341076,11.1429188 L10.6111485,11.1429188 C10.9615854,11.1429188 11.245998,11.432752 11.245998,11.790832 C11.245998,12.1484801 10.9615854,12.4387452 10.6111485,12.4387452 L6.00341076,12.4387452 Z M15.8357483,2 C17.30479,2 18.5,3.21980455 18.5,4.71907564 L18.5,9.93564062 C18.5,11.4349117 17.30479,12.6547163 15.8357483,12.6547163 L15.114136,12.6547163 L15.114136,13.2650505 C15.114136,14.7643216 13.918926,15.9841261 12.4498842,15.9841261 L9.14062539,15.9841261 C8.93070182,16.1400572 8.55656385,16.5067761 8.55656385,17.1361158 C8.55656385,17.6129799 8.17734708,18 7.71009784,18 C7.24242537,18 6.86363184,17.6129799 6.86363184,17.1361158 C6.86363184,15.5867394 7.91324968,14.6515847 8.53370926,14.34361 C8.64925187,14.2861617 8.77537531,14.2563576 8.90403814,14.2563576 L12.4498842,14.2563576 C12.9856972,14.2563576 13.421204,13.8118892 13.421204,13.2650505 L13.421204,8.0484855 C13.421204,7.50207872 12.9856972,7.05717834 12.4498842,7.05717834 L4.16425175,7.05717834 C3.62843877,7.05717834 3.19293201,7.50207872 3.19293201,8.0484855 L3.19293201,13.2650505 C3.19293201,13.8118892 3.62843877,14.2563576 4.16425175,14.2563576 L5.4204073,14.2563576 C5.88765653,14.2563576 6.2668733,14.6433778 6.2668733,15.1202419 C6.2668733,15.597106 5.88765653,15.9841261 5.4204073,15.9841261 L4.16425175,15.9841261 C2.69521,15.9841261 1.5,14.7643216 1.5,13.2650505 L1.5,8.0484855 C1.5,6.54921441 2.69521,5.32940986 4.16425175,5.32940986 L12.4498842,5.32940986 C13.918926,5.32940986 15.114136,6.54921441 15.114136,8.0484855 L15.114136,10.9269478 L15.8357483,10.9269478 C16.3715612,10.9269478 16.807068,10.4820474 16.807068,9.93564062 L16.807068,4.71907564 C16.807068,4.17266886 16.3715612,3.72776848 15.8357483,3.72776848 L7.55011577,3.72776848 C7.0824433,3.72776848 6.70364976,3.34074834 6.70364976,2.86388424 C6.70364976,2.38702014 7.0824433,2 7.55011577,2 L15.8357483,2 Z" id="Combined-Shape" fill="#F47F22" fill-rule="nonzero"></path>
                        </g>
                    </g>
                </g>
            </g>
        </g>
    </g>
</svg>