<?xml version="1.0" encoding="UTF-8"?>
<svg width="22px" height="22px" viewBox="0 0 22 22" version="1.1" xmlns="http://www.w3.org/2000/svg" xmlns:xlink="http://www.w3.org/1999/xlink">
    <!-- Generator: Sketch 52.2 (67145) - http://www.bohemiancoding.com/sketch -->
    <title>ic_has_read_counter</title>
    <desc>Created with Sketch.</desc>
    <g id="Page-1" stroke="none" stroke-width="1" fill="none" fill-rule="evenodd">
        <g id="18-H-Detail-Book" transform="translate(-290.000000, -267.000000)">
            <g id="item" transform="translate(40.000000, 60.000000)">
                <g id="activity_counter" transform="translate(250.000000, 200.000000)">
                    <g id="read">
                        <g id="ic_has_read_counter" transform="translate(0.000000, 7.000000)">
                            <polygon id="Shape" points="0 0 22 0 22 22 0 22"></polygon>
                            <path d="M19.25,3.66666667 L2.75,3.66666667 C1.74166667,3.66666667 0.916666667,4.49166667 0.916666667,5.5 L0.916666667,17.4166667 C0.916666667,18.425 1.74166667,19.25 2.75,19.25 L19.25,19.25 C20.2583333,19.25 21.0833333,18.425 21.0833333,17.4166667 L21.0833333,5.5 C21.0833333,4.49166667 20.2583333,3.66666667 19.25,3.66666667 Z M2.75,17.4166667 L2.75,5.5 L10.0833333,5.5 L10.0833333,17.4166667 L2.75,17.4166667 Z M19.25,17.4166667 L11.9166667,17.4166667 L11.9166667,5.5 L19.25,5.5 L19.25,17.4166667 Z M12.8333333,8.70833333 L18.3333333,8.70833333 L18.3333333,10.0833333 L12.8333333,10.0833333 L12.8333333,8.70833333 Z M12.8333333,11 L18.3333333,11 L18.3333333,12.375 L12.8333333,12.375 L12.8333333,11 Z M12.8333333,13.2916667 L18.3333333,13.2916667 L18.3333333,14.6666667 L12.8333333,14.6666667 L12.8333333,13.2916667 Z" id="Shape" fill="#F47F22" fill-rule="nonzero"></path>
                        </g>
                    </g>
                </g>
            </g>
        </g>
    </g>
</svg>