<?xml version="1.0" encoding="UTF-8"?>
<svg width="72px" height="72px" viewBox="0 0 72 72" version="1.1" xmlns="http://www.w3.org/2000/svg" xmlns:xlink="http://www.w3.org/1999/xlink">
    <!-- Generator: Sketch 52.2 (67145) - http://www.bohemiancoding.com/sketch -->
    <title>ic_has_listening_empty</title>
    <desc>Created with Sketch.</desc>
    <g id="Page-1" stroke="none" stroke-width="1" fill="none" fill-rule="evenodd">
        <g id="76-H-Audio-Empty-List-Has-Play" transform="translate(-365.000000, -279.000000)">
            <g id="pop_up_has_read_empty">
                <g id="content" transform="translate(141.000000, 60.000000)">
                    <g id="ic_has_listening_empty" transform="translate(224.000000, 219.000000)">
                        <polygon id="Path" points="0 0 72 0 72 72 0 72"></polygon>
                        <path d="M36,6 C19.44,6 6,19.44 6,36 C6,52.56 19.44,66 36,66 C52.56,66 66,52.56 66,36 C66,19.44 52.56,6 36,6 Z M36,60 C22.77,60 12,49.23 12,36 C12,22.77 22.77,12 36,12 C49.23,12 60,22.77 60,36 C60,49.23 49.23,60 36,60 Z M36,22.5 C28.53,22.5 22.5,28.53 22.5,36 C22.5,43.47 28.53,49.5 36,49.5 C43.47,49.5 49.5,43.47 49.5,36 C49.5,28.53 43.47,22.5 36,22.5 Z M36,39 C34.35,39 33,37.65 33,36 C33,34.35 34.35,33 36,33 C37.65,33 39,34.35 39,36 C39,37.65 37.65,39 36,39 Z" id="Shape" fill="#9B9B9B" fill-rule="nonzero"></path>
                    </g>
                </g>
            </g>
        </g>
    </g>
</svg>