<?xml version="1.0" encoding="UTF-8"?>
<svg width="22px" height="22px" viewBox="0 0 22 22" version="1.1" xmlns="http://www.w3.org/2000/svg" xmlns:xlink="http://www.w3.org/1999/xlink">
    <!-- Generator: Sketch 52.2 (67145) - http://www.bohemiancoding.com/sketch -->
    <title>ic_has_listen_audio</title>
    <desc>Created with Sketch.</desc>
    <g id="Page-1" stroke="none" stroke-width="1" fill="none" fill-rule="evenodd">
        <g id="62-H-Detail-Audio" transform="translate(-286.000000, -271.000000)">
            <g id="content">
                <g id="item" transform="translate(40.000000, 60.000000)">
                    <g id="activity_counter" transform="translate(246.000000, 204.000000)">
                        <g id="read">
                            <g id="ic_has_listen_audio" transform="translate(0.000000, 7.000000)">
                                <polygon id="Path" points="0 0 22 0 22 22 0 22"></polygon>
                                <path d="M11,1.83333333 C5.94,1.83333333 1.83333333,5.94 1.83333333,11 C1.83333333,16.06 5.94,20.1666667 11,20.1666667 C16.06,20.1666667 20.1666667,16.06 20.1666667,11 C20.1666667,5.94 16.06,1.83333333 11,1.83333333 Z M11,18.3333333 C6.9575,18.3333333 3.66666667,15.0425 3.66666667,11 C3.66666667,6.9575 6.9575,3.66666667 11,3.66666667 C15.0425,3.66666667 18.3333333,6.9575 18.3333333,11 C18.3333333,15.0425 15.0425,18.3333333 11,18.3333333 Z M11,6.875 C8.7175,6.875 6.875,8.7175 6.875,11 C6.875,13.2825 8.7175,15.125 11,15.125 C13.2825,15.125 15.125,13.2825 15.125,11 C15.125,8.7175 13.2825,6.875 11,6.875 Z M11,11.9166667 C10.4958333,11.9166667 10.0833333,11.5041667 10.0833333,11 C10.0833333,10.4958333 10.4958333,10.0833333 11,10.0833333 C11.5041667,10.0833333 11.9166667,10.4958333 11.9166667,11 C11.9166667,11.5041667 11.5041667,11.9166667 11,11.9166667 Z" id="Shape" fill="#F47F22" fill-rule="nonzero"></path>
                            </g>
                        </g>
                    </g>
                </g>
            </g>
        </g>
    </g>
</svg>