<?xml version="1.0" encoding="UTF-8"?>
<svg width="22px" height="22px" viewBox="0 0 22 22" version="1.1" xmlns="http://www.w3.org/2000/svg" xmlns:xlink="http://www.w3.org/1999/xlink">
    <!-- Generator: Sketch 52.2 (67145) - http://www.bohemiancoding.com/sketch -->
    <title>ic_has_play_video</title>
    <desc>Created with Sketch.</desc>
    <g id="Page-1" stroke="none" stroke-width="1" fill="none" fill-rule="evenodd">
        <g id="77-H-Detail-Video" transform="translate(-41.000000, -377.000000)">
            <g id="content" transform="translate(0.000000, 60.000000)">
                <g id="item" transform="translate(41.000000, 0.000000)">
                    <g id="right">
                        <g id="activity_counter" transform="translate(0.000000, 310.000000)">
                            <g id="read">
                                <g id="ic_has_play_video" transform="translate(0.000000, 7.000000)">
                                    <polygon id="Path" points="0 0 22 0 22 22 0 22"></polygon>
                                    <path d="M11,1.83333333 C5.94,1.83333333 1.83333333,5.94 1.83333333,11 C1.83333333,16.06 5.94,20.1666667 11,20.1666667 C16.06,20.1666667 20.1666667,16.06 20.1666667,11 C20.1666667,5.94 16.06,1.83333333 11,1.83333333 Z M11,18.3333333 C6.9575,18.3333333 3.66666667,15.0425 3.66666667,11 C3.66666667,6.9575 6.9575,3.66666667 11,3.66666667 C15.0425,3.66666667 18.3333333,6.9575 18.3333333,11 C18.3333333,15.0425 15.0425,18.3333333 11,18.3333333 Z M9.16666667,15.125 L14.6666667,11 L9.16666667,6.875 L9.16666667,15.125 Z" id="Shape" fill="#F47F22" fill-rule="nonzero"></path>
                                </g>
                            </g>
                        </g>
                    </g>
                </g>
            </g>
        </g>
    </g>
</svg>