<?xml version="1.0" encoding="UTF-8"?>
<svg width="72px" height="72px" viewBox="0 0 72 72" version="1.1" xmlns="http://www.w3.org/2000/svg" xmlns:xlink="http://www.w3.org/1999/xlink">
    <!-- Generator: Sketch 52.2 (67145) - http://www.bohemiancoding.com/sketch -->
    <title>ic_has_read_list_empty</title>
    <desc>Created with Sketch.</desc>
    <g id="Page-1" stroke="none" stroke-width="1" fill="none" fill-rule="evenodd">
        <g id="19-H-Has-Read-Empty" transform="translate(-365.000000, -279.000000)">
            <g id="pop_up_has_read_empty">
                <g id="content" transform="translate(141.000000, 60.000000)">
                    <g id="ic_has_read_list_empty" transform="translate(224.000000, 219.000000)">
                        <polygon id="Shape" points="0 0 72 0 72 72 0 72"></polygon>
                        <path d="M63,12 L9,12 C5.7,12 3,14.7 3,18 L3,57 C3,60.3 5.7,63 9,63 L63,63 C66.3,63 69,60.3 69,57 L69,18 C69,14.7 66.3,12 63,12 Z M9,57 L9,18 L33,18 L33,57 L9,57 Z M63,57 L39,57 L39,18 L63,18 L63,57 Z M42,28.5 L60,28.5 L60,33 L42,33 L42,28.5 Z M42,36 L60,36 L60,40.5 L42,40.5 L42,36 Z M42,43.5 L60,43.5 L60,48 L42,48 L42,43.5 Z" id="Shape" fill="#9B9B9B" fill-rule="nonzero"></path>
                    </g>
                </g>
            </g>
        </g>
    </g>
</svg>