<?xml version="1.0" encoding="UTF-8"?>
<svg width="22px" height="22px" viewBox="0 0 22 22" version="1.1" xmlns="http://www.w3.org/2000/svg" xmlns:xlink="http://www.w3.org/1999/xlink">
    <!-- Generator: Sketch 52.2 (67145) - http://www.bohemiancoding.com/sketch -->
    <title>ic_like_activated</title>
    <desc>Created with Sketch.</desc>
    <g id="Page-1" stroke="none" stroke-width="1" fill="none" fill-rule="evenodd">
        <g id="75-H-Audio-Liked" transform="translate(-61.000000, -362.000000)">
            <g id="content">
                <g id="item" transform="translate(40.000000, 60.000000)">
                    <g id="reaction" transform="translate(21.000000, 302.000000)">
                        <g id="like">
                            <g id="ic_like_activated">
                                <path d="M0,0 L22,0 L22,22 L0,22 L0,0 Z M0,0 L22,0 L22,22 L0,22 L0,0 Z" id="Shape"></path>
                                <path d="M8.25,19.25 L16.5,19.25 C17.2608333,19.25 17.9116667,18.7916667 18.1866667,18.1316667 L20.955,11.6691667 C21.0375,11.4583333 21.0833333,11.2383333 21.0833333,11 L21.0833333,9.16666667 C21.0833333,8.15833333 20.2583333,7.33333333 19.25,7.33333333 L13.4658333,7.33333333 L14.3366667,3.14416667 L14.3641667,2.85083333 C14.3641667,2.475 14.2083333,2.12666667 13.9608333,1.87916667 L12.9891667,0.916666667 L6.94833333,6.9575 C6.61833333,7.2875 6.41666667,7.74583333 6.41666667,8.25 L6.41666667,17.4166667 C6.41666667,18.425 7.24166667,19.25 8.25,19.25 Z M0.916666667,8.25 L4.58333333,8.25 L4.58333333,19.25 L0.916666667,19.25 L0.916666667,8.25 Z" id="Shape" fill="#F47F22" fill-rule="nonzero"></path>
                            </g>
                        </g>
                    </g>
                </g>
            </g>
        </g>
    </g>
</svg>