<?xml version="1.0" encoding="UTF-8"?>
<svg width="72px" height="72px" viewBox="0 0 72 72" version="1.1" xmlns="http://www.w3.org/2000/svg" xmlns:xlink="http://www.w3.org/1999/xlink">
    <!-- Generator: Sketch 52.2 (67145) - http://www.bohemiancoding.com/sketch -->
    <title>ic_queue_empty</title>
    <desc>Created with Sketch.</desc>
    <g id="Page-1" stroke="none" stroke-width="1" fill="none" fill-rule="evenodd">
        <g id="20-H-Queue-Empty" transform="translate(-365.000000, -274.000000)">
            <g id="pop_up_queue_empty">
                <g id="ic_queue_empty" transform="translate(365.000000, 274.000000)">
                    <polygon id="Shape" points="0 0 72 0 72 72 0 72"></polygon>
                    <path d="M36.0235161,68.3027027 C21.0719724,68.3027027 8.95135135,56.3195067 8.95135135,41.5374853 C8.95135135,26.7554639 21.0719724,14.7722679 36.0235161,14.7722679 C50.9750599,14.7722679 63.0956809,26.7554639 63.0956809,41.5374853 C63.0956809,56.3195067 50.9750599,68.3027027 36.0235161,68.3027027 Z M36.0235161,61.2592244 C47.0404431,61.2592244 55.971427,52.4295011 55.971427,41.5374853 C55.971427,30.6454696 47.0404431,21.8157462 36.0235161,21.8157462 C25.0065891,21.8157462 16.0756052,30.6454696 16.0756052,41.5374853 C16.0756052,52.4295011 25.0065891,61.2592244 36.0235161,61.2592244 Z M24.6247099,10.546181 L21.7750083,10.546181 L21.7750083,3.5027027 L24.6247099,3.5027027 L47.4223223,3.5027027 L50.2720239,3.5027027 L50.2720239,10.546181 L47.4223223,10.546181 L24.6247099,10.546181 Z M39.5452552,44.0162746 L39.5452552,45.8685806 L32.501777,45.8685806 L32.501777,44.0162746 L32.501777,29.1978265 L32.501777,27.3455205 L39.5452552,27.3455205 L39.5452552,29.1978265 L39.5452552,44.0162746 Z M59.6762911,22.799296 L59.1725303,23.3030568 L54.192039,18.3225655 L54.6957998,17.8188047 L58.7258864,13.7887181 L59.2296473,13.2849573 L64.2101385,18.2654486 L63.7063777,18.7692094 L59.6762911,22.799296 Z" id="shape" fill="#9B9B9B"></path>
                </g>
            </g>
        </g>
    </g>
</svg>