<?xml version="1.0" encoding="UTF-8"?>
<svg width="22px" height="22px" viewBox="0 0 22 22" version="1.1" xmlns="http://www.w3.org/2000/svg" xmlns:xlink="http://www.w3.org/1999/xlink">
    <!-- Generator: Sketch 52.2 (67145) - http://www.bohemiancoding.com/sketch -->
    <title>ic_queue</title>
    <desc>Created with Sketch.</desc>
    <g id="Page-1" stroke="none" stroke-width="1" fill="none" fill-rule="evenodd">
        <g id="77-H-Detail-Video" transform="translate(-170.000000, -377.000000)">
            <g id="content" transform="translate(0.000000, 60.000000)">
                <g id="item" transform="translate(41.000000, 0.000000)">
                    <g id="right">
                        <g id="activity_counter" transform="translate(0.000000, 310.000000)">
                            <g id="queue" transform="translate(129.000000, 0.000000)">
                                <g id="ic_queue" transform="translate(0.000000, 7.000000)">
                                    <polygon id="Shape" points="0 0 22 0 22 22 0 22"></polygon>
                                    <path d="M11,20.9 C6.44365081,20.9 2.75,17.2384679 2.75,12.7217391 C2.75,8.20501037 6.44365081,4.54347826 11,4.54347826 C15.5563492,4.54347826 19.25,8.20501037 19.25,12.7217391 C19.25,17.2384679 15.5563492,20.9 11,20.9 Z M11,18.7478261 C14.3573099,18.7478261 17.0789474,16.0498551 17.0789474,12.7217391 C17.0789474,9.3936232 14.3573099,6.69565217 11,6.69565217 C7.64269007,6.69565217 4.92105263,9.3936232 4.92105263,12.7217391 C4.92105263,16.0498551 7.64269007,18.7478261 11,18.7478261 Z M7.52631579,3.25217391 L6.65789474,3.25217391 L6.65789474,1.1 L7.52631579,1.1 L14.4736842,1.1 L15.3421053,1.1 L15.3421053,3.25217391 L14.4736842,3.25217391 L7.52631579,3.25217391 Z M12.076087,13.4731121 L12.076087,14.0375858 L9.92391304,14.0375858 L9.92391304,13.4731121 L9.92391304,8.95732265 L9.92391304,8.39284897 L12.076087,8.39284897 L12.076087,8.95732265 L12.076087,13.4731121 Z M18.2099999,6.99454002 L18.0564833,7.14805662 L16.5346665,5.62623985 L16.6881831,5.47272325 L17.9163159,4.24459042 L18.0698325,4.09107381 L19.5916493,5.61289058 L19.4381327,5.76640719 L18.2099999,6.99454002 Z" id="shape" fill="#F47F22" fill-rule="nonzero"></path>
                                </g>
                            </g>
                        </g>
                    </g>
                </g>
            </g>
        </g>
    </g>
</svg>