<?xml version="1.0" encoding="UTF-8"?>
<svg width="10px" height="10px" viewBox="0 0 10 10" version="1.1" xmlns="http://www.w3.org/2000/svg" xmlns:xlink="http://www.w3.org/1999/xlink">
    <!-- Generator: Sketch 52.2 (67145) - http://www.bohemiancoding.com/sketch -->
    <title>ic_rate_preview_active</title>
    <desc>Created with Sketch.</desc>
    <g id="Page-1" stroke="none" stroke-width="1" fill="none" fill-rule="evenodd">
        <g id="28-H-Detail-Review-Empty-Reply" transform="translate(-211.000000, -154.000000)" fill="#F47F22">
            <g id="pop_up_detail_reply">
                <g id="content" transform="translate(141.000000, 108.000000)">
                    <g id="n1">
                        <g id="ava" transform="translate(20.000000, 20.000000)">
                            <g id="Group" transform="translate(50.000000, 4.000000)">
                                <g id="star" transform="translate(0.000000, 22.000000)">
                                    <path d="M9.96234008,3.72871604 C9.87646298,3.47178784 9.65487324,3.28391072 9.38736755,3.24121973 L6.78332527,2.84205609 L5.65421253,0.417491122 C5.53599152,0.162880746 5.28078593,0 5.00007711,0 C4.71936829,0 4.46416271,0.162880746 4.34594169,0.417491122 L3.21682896,2.84122276 L0.61278668,3.24038641 C0.344956075,3.28328473 0.123194717,3.47155464 0.0373935424,3.72888095 C-0.0484076323,3.98620726 0.015986139,4.2698985 0.20447285,4.46496047 L2.11271503,6.42994558 L1.67106946,9.15617493 C1.62423005,9.4300154 1.73864365,9.70644404 1.96530918,9.86707192 C2.19197472,10.0276998 2.49068905,10.0440367 2.73351871,9.9090859 L5.00007711,8.64826211 L7.26663551,9.9090859 C7.37403563,9.96772663 7.49425759,9.99892835 7.6166188,9.99991854 C7.82932127,9.99955636 8.03109503,9.90563897 8.16832678,9.74312115 C8.30555854,9.58060333 8.36435185,9.36594205 8.32908476,9.15617493 L7.88743919,6.42994558 L9.79568138,4.46496047 C9.98425537,4.26986984 10.0485122,3.98600408 9.96234008,3.72871604 L9.96234008,3.72871604 Z" id="ic_rate_preview_active"></path>
                                </g>
                            </g>
                        </g>
                    </g>
                </g>
            </g>
        </g>
    </g>
</svg>