<?xml version="1.0" encoding="UTF-8"?>
<svg width="10px" height="10px" viewBox="0 0 10 10" version="1.1" xmlns="http://www.w3.org/2000/svg" xmlns:xlink="http://www.w3.org/1999/xlink">
    <!-- Generator: Sketch 52.2 (67145) - http://www.bohemiancoding.com/sketch -->
    <title>ic_rate_preview_inactive</title>
    <desc>Created with Sketch.</desc>
    <g id="Page-1" stroke="none" stroke-width="1" fill="none" fill-rule="evenodd">
        <g id="28-H-Detail-Review-Empty-Reply" transform="translate(-275.000000, -154.000000)" fill="#E7E6E7">
            <g id="pop_up_detail_reply">
                <g id="content" transform="translate(141.000000, 108.000000)">
                    <g id="n1">
                        <g id="ava" transform="translate(20.000000, 20.000000)">
                            <g id="Group" transform="translate(50.000000, 4.000000)">
                                <g id="star" transform="translate(0.000000, 22.000000)">
                                    <path d="M73.9623401,3.72871604 C73.876463,3.47178784 73.6548732,3.28391072 73.3873675,3.24121973 L70.7833253,2.84205609 L69.6542125,0.417491122 C69.5359915,0.162880746 69.2807859,0 69.0000771,0 C68.7193683,0 68.4641627,0.162880746 68.3459417,0.417491122 L67.216829,2.84122276 L64.6127867,3.24038641 C64.3449561,3.28328473 64.1231947,3.47155464 64.0373935,3.72888095 C63.9515924,3.98620726 64.0159861,4.2698985 64.2044729,4.46496047 L66.112715,6.42994558 L65.6710695,9.15617493 C65.62423,9.4300154 65.7386437,9.70644404 65.9653092,9.86707192 C66.1919747,10.0276998 66.490689,10.0440367 66.7335187,9.9090859 L69.0000771,8.64826211 L71.2666355,9.9090859 C71.3740356,9.96772663 71.4942576,9.99892835 71.6166188,9.99991854 C71.8293213,9.99955636 72.031095,9.90563897 72.1683268,9.74312115 C72.3055585,9.58060333 72.3643519,9.36594205 72.3290848,9.15617493 L71.8874392,6.42994558 L73.7956814,4.46496047 C73.9842554,4.26986984 74.0485122,3.98600408 73.9623401,3.72871604 L73.9623401,3.72871604 Z" id="ic_rate_preview_inactive"></path>
                                </g>
                            </g>
                        </g>
                    </g>
                </g>
            </g>
        </g>
    </g>
</svg>