<?xml version="1.0" encoding="UTF-8"?>
<svg width="20px" height="20px" viewBox="0 0 20 20" version="1.1" xmlns="http://www.w3.org/2000/svg" xmlns:xlink="http://www.w3.org/1999/xlink">
    <!-- Generator: Sketch 52.2 (67145) - http://www.bohemiancoding.com/sketch -->
    <title>ic_rate_active</title>
    <desc>Created with Sketch.</desc>
    <g id="Page-1" stroke="none" stroke-width="1" fill="none" fill-rule="evenodd">
        <g id="18-H-Detail-Book" transform="translate(-330.000000, -131.000000)">
            <g id="item" transform="translate(40.000000, 60.000000)">
                <g id="rate" transform="translate(290.000000, 71.000000)">
                    <g id="ic_rate">
                        <g>
                            <g>
                                <polygon id="Shape" points="0 0 20 0 20 20 0 20"></polygon>
                                <path d="M16.8255714,8.64393981 C16.7128577,8.30672154 16.4220211,8.06013283 16.0709199,8.0041009 L12.6531144,7.48019862 L11.171154,4.2979571 C11.0159889,3.96378098 10.6810315,3.75 10.3126012,3.75 C9.94417088,3.75 9.60921356,3.96378098 9.45404847,4.2979571 L7.97208801,7.47910488 L4.55428252,8.00300716 C4.20275485,8.05931121 3.91169307,8.30641546 3.79907902,8.64415625 C3.68646498,8.98189703 3.77098181,9.35424179 4.01837062,9.61026061 L6.52293848,12.1893036 L5.94327867,15.7674796 C5.88180193,16.1268952 6.03196979,16.4897078 6.3294683,16.7005319 C6.62696682,16.911356 7.01902938,16.9327982 7.33774331,16.7556752 L10.3126012,15.100844 L13.2874591,16.7556752 C13.4284218,16.8326412 13.5862131,16.8735935 13.7468122,16.8748931 C14.0259842,16.8744177 14.2908122,16.7511512 14.4709289,16.5378465 C14.6510456,16.3245419 14.7282118,16.0427989 14.6819238,15.7674796 L14.1022639,12.1893036 L16.6068318,9.61026061 C16.8543352,9.35420417 16.9386722,8.98163036 16.8255714,8.64393981 L16.8255714,8.64393981 Z" id="star" fill="#FFFFFF"></path>
                            </g>
                        </g>
                    </g>
                </g>
            </g>
        </g>
    </g>
</svg>