<?xml version="1.0" encoding="UTF-8"?>
<svg width="60px" height="60px" viewBox="0 0 60 60" version="1.1" xmlns="http://www.w3.org/2000/svg" xmlns:xlink="http://www.w3.org/1999/xlink">
    <!-- Generator: Sketch 52.2 (67145) - http://www.bohemiancoding.com/sketch -->
    <title>ic_video</title>
    <desc>Created with Sketch.</desc>
    <g id="Page-1" stroke="none" stroke-width="1" fill="none" fill-rule="evenodd">
        <g id="5-H-Landing-Audio-Detail-Category" transform="translate(-40.000000, -60.000000)">
            <g id="left" transform="translate(40.000000, 60.000000)">
                <g id="data">
                    <g id="ic_video">
                        <path d="M45,10 L49.55,19.1 C49.75,19.5 49.45,20 49,20 L44.05,20 C43.1,20 42.225,19.475 41.825,18.625 L37.5,10 L32.5,10 L37.05,19.1 C37.25,19.5 36.95,20 36.5,20 L31.55,20 C30.6,20 29.725,19.475 29.325,18.625 L25,10 L20,10 L24.55,19.1 C24.75,19.5 24.45,20 24,20 L19.05,20 C18.1,20 17.225,19.475 16.8,18.625 L12.5,10 L10,10 C7.25,10 5,12.25 5,15 L5,45 C5,47.75 7.25,50 10,50 L50,50 C52.75,50 55,47.75 55,45 L55,12.5 C55,11.125 53.875,10 52.5,10 L45,10 Z" id="Path" fill="#FFFFFF"></path>
                        <polygon id="Path" points="0 0 60 0 60 60 0 60"></polygon>
                    </g>
                </g>
            </g>
        </g>
    </g>
</svg>