<?xml version="1.0" encoding="UTF-8"?>
<svg width="242px" height="111px" viewBox="0 0 242 111" version="1.1" xmlns="http://www.w3.org/2000/svg" xmlns:xlink="http://www.w3.org/1999/xlink">
    <!-- Generator: Sketch 52.2 (67145) - http://www.bohemiancoding.com/sketch -->
    <title>main_logo_caption</title>
    <desc>Created with Sketch.</desc>
    <g id="Main-Content" stroke="none" stroke-width="1" fill="none" fill-rule="evenodd">
        <g id="Sign_in_Page_Default" transform="translate(-280.000000, -159.000000)" fill="#FFFFFF">
            <g id="content">
                <g id="main_logo_caption" transform="translate(266.000000, 160.000000)">
                    <path d="M104.742817,28.2441754 C116.125589,31.9470286 124.401709,42.9049455 124.401709,55.8185284 L124.401709,57.8360656 L120.477518,57.8360656 L120.477518,55.8185284 C120.477518,42.7785132 110.667038,32.0707709 98.2404311,31.0377918 L98.2404311,57.8360656 L94.3162393,57.8360656 L94.3162393,30.93557 L94.3162393,26.9004956 L94.3162393,0 L98.2404311,0 L98.2404311,26.7108471 C103.437369,25.7545345 107.396878,21.0819184 107.396878,15.467785 L111.32107,15.467785 C111.32107,20.7712177 108.710175,25.455939 104.742817,28.2441754 Z M53.974359,41.3114754 C53.974359,32.959253 60.7226607,26.1639344 69.017094,26.1639344 C76.6457228,26.1639344 82.9505909,31.9160485 83.9172501,39.3357092 L84.0598291,39.3357092 L84.0598291,56.4590164 L80.1356373,56.4590164 L80.1356373,41.3114754 C80.1356373,35.1378646 75.1479896,30.1154669 69.017094,30.1154669 C62.8861984,30.1154669 57.8985507,35.1378646 57.8985507,41.3114754 C57.8985507,47.4850862 62.8861984,52.507484 69.017094,52.507484 L72.9412858,52.507484 L76.8654775,52.507484 L76.8654775,56.4590164 L72.9412858,56.4590164 L69.017094,56.4590164 C60.7226607,56.4590164 53.974359,49.6636978 53.974359,41.3114754 Z M178.745819,31.1441825 C181.374136,28.0935994 185.152419,26.1639344 189.358974,26.1639344 L189.358974,30.1154669 C183.506756,30.1154669 178.745819,35.1378646 178.745819,41.3114754 L178.745819,56.4590164 L175,56.4590164 L175,26.1639344 L178.745819,26.1639344 L178.745819,31.1441825 Z M134.65812,41.3114754 C134.65812,32.959253 141.406421,26.1639344 149.700855,26.1639344 C157.329483,26.1639344 163.634352,31.9160485 164.601011,39.3357092 L164.74359,39.3357092 L164.74359,56.4590164 L160.819398,56.4590164 L160.819398,41.3114754 C160.819398,35.1378646 155.83175,30.1154669 149.700855,30.1154669 C143.569959,30.1154669 138.582311,35.1378646 138.582311,41.3114754 C138.582311,47.4850862 143.569959,52.507484 149.700855,52.507484 L153.625046,52.507484 L157.549238,52.507484 L157.549238,56.4590164 L153.625046,56.4590164 L149.700855,56.4590164 C141.406421,56.4590164 134.65812,49.6636978 134.65812,41.3114754 Z M39.9721293,68.7789273 L39.9721293,15.8360656 L43.7179487,15.8360656 L43.7179487,70.7642846 L43.5818506,70.7642846 C42.6591304,78.2199631 36.6408473,84 29.3589744,84 L29.3589744,80.0292854 C35.2111929,80.0292854 39.9721293,74.9825071 39.9721293,68.7789273 Z M224.91453,41.3114754 C224.91453,32.959253 231.662832,26.1639344 239.957265,26.1639344 C247.585894,26.1639344 253.890762,31.9160485 254.857421,39.3357092 L255,39.3357092 L255,56.4590164 L251.075808,56.4590164 L251.075808,41.3114754 C251.075808,35.1378646 246.088161,30.1154669 239.957265,30.1154669 C233.826369,30.1154669 228.838722,35.1378646 228.838722,41.3114754 C228.838722,47.4850862 233.826369,52.507484 239.957265,52.507484 L243.881457,52.507484 L247.805648,52.507484 L247.805648,56.4590164 L243.881457,56.4590164 L239.957265,56.4590164 C231.662832,56.4590164 224.91453,49.6636978 224.91453,41.3114754 Z M29.3589744,39.7724204 L29.3589744,57.147541 L18.9160839,57.147541 L15,57.147541 L15,34.4262295 L18.9160839,34.4262295 L18.9160839,39.7724204 L29.3589744,39.7724204 Z M15,26.1639344 L19.1025641,26.1639344 L19.1025641,30.295082 L15,30.295082 L15,26.1639344 Z M202.677443,42.5027322 C202.677443,48.7520656 207.43838,53.8360656 213.290598,53.8360656 L213.290598,57.8360656 C205.373185,57.8360656 198.931624,50.9573989 198.931624,42.5027322 L198.931624,15.8360656 L202.677443,15.8360656 L202.677443,27.1693989 L206.423263,27.1693989 L206.423263,31.1693989 L202.677443,31.1693989 L202.677443,42.5027322 Z" id="Navlogo" stroke="#FFFFFF" stroke-width="0.5" stroke-linecap="round" stroke-linejoin="round"></path>
                    <text id="title" font-family="Roboto-Regular, Roboto" font-size="14" font-weight="normal" letter-spacing="0.100000001">
                        <tspan x="16.6575195" y="107">Selamat Datang di Aplikasi</tspan>
                        <tspan x="185.815137" y="107" font-family="Roboto-Medium, Roboto" font-weight="400"> </tspan>
                        <tspan x="189.401465" y="107" font-family="Roboto-Bold, Roboto" font-weight="bold">SmartCity</tspan>
                        <tspan x="253.34248" y="107" font-family="Roboto-Bold, Roboto" font-weight="bold"> </tspan>
                    </text>
                </g>
            </g>
        </g>
    </g>
</svg>