<?xml version="1.0" encoding="UTF-8"?>
<svg width="40px" height="40px" viewBox="0 0 40 40" version="1.1" xmlns="http://www.w3.org/2000/svg" xmlns:xlink="http://www.w3.org/1999/xlink">
    <!-- Generator: Sketch 52.2 (67145) - http://www.bohemiancoding.com/sketch -->
    <title>ic_beasiswa_orange</title>
    <desc>Created with Sketch.</desc>
    <g id="Page-1" stroke="none" stroke-width="1" fill="none" fill-rule="evenodd">
        <g id="2-H-Feeds-Change-Content" transform="translate(-430.000000, -154.000000)">
            <g id="top-up-and-program" transform="translate(410.000000, 80.000000)">
                <g id="schollarship" transform="translate(20.000000, 74.000000)">
                    <g id="icon">
                        <g id="ic_beasiswa_orange">
                            <rect id="Rectangle-path" x="0" y="0" width="40" height="40"></rect>
                            <g id="Page-1" transform="translate(2.500000, 0.000000)" fill="#F47F22" stroke="#F47F22">
                                <path d="M32.7029756,28.8442925 C32.7029756,29.4445029 32.2093518,29.932667 31.6036132,29.932667 L21.1976621,29.932667 L21.1976621,20.7890584 L31.6036132,20.7890584 C32.2093518,20.7890584 32.7029756,21.2766965 32.7029756,21.8769069 L32.7029756,28.8442925 Z M19.9367694,29.932667 C19.7167906,29.932667 19.5382572,30.1094161 19.5382572,30.3271962 L19.5382572,34.702262 L18.3028693,33.4429248 C18.1604676,33.297738 17.946865,33.2530247 17.7555792,33.3293004 C17.5658874,33.405576 17.4431456,33.5860074 17.4431456,33.7885324 L17.4431456,37.8232509 L16.5765143,37.0315623 C16.3910733,36.8616518 16.1062699,36.8553393 15.9112646,37.0194634 L14.91339,37.8663861 L14.91339,30.3271962 C14.91339,30.1094161 14.7348565,29.932667 14.5148778,29.932667 L13.8660999,29.932667 L13.8660999,20.7890584 L20.4006376,20.7890584 L20.4006376,29.932667 L19.9367694,29.932667 Z M1.29702444,28.8442925 L1.29702444,21.8769069 C1.29702444,21.2766965 1.78958555,20.7890584 2.39585547,20.7890584 L13.0690755,20.7890584 L13.0690755,29.932667 L2.39585547,29.932667 C1.78958555,29.932667 1.29702444,29.4445029 1.29702444,28.8442925 Z M31.6036132,20 L20.7991498,20 L13.4675877,20 L2.39585547,20 C1.3501594,20 0.5,20.8416623 0.5,21.8769069 L0.5,28.8442925 C0.5,29.8795371 1.3501594,30.7217254 2.39585547,30.7217254 L13.4675877,30.7217254 L14.1163656,30.7217254 L14.1163656,38.5044713 C14.1163656,38.6970016 14.2300744,38.8737507 14.4070138,38.9547607 C14.4734325,38.9847449 14.5451647,39 14.6158342,39 C14.7337938,39 14.8496281,38.958969 14.9426142,38.8805892 L16.2300744,37.7880063 L17.4006376,38.8579695 C17.5467588,38.9915834 17.7587673,39.0257759 17.9410202,38.9473961 C18.1227418,38.8679642 18.24017,38.6901631 18.24017,38.4934245 L18.24017,34.5118359 L19.4744952,35.770121 C19.6174283,35.9158338 19.8331562,35.9610731 20.0223167,35.8847975 C20.2120085,35.8085218 20.3352816,35.6280905 20.3352816,35.4255655 L20.3352816,30.7217254 L20.7991498,30.7217254 L31.6036132,30.7217254 C32.6487779,30.7217254 33.5,29.8795371 33.5,28.8442925 L33.5,21.8769069 C33.5,20.8416623 32.6487779,20 31.6036132,20 Z" id="Fill-4"></path>
                                <path d="M17.4997388,0.810024672 L32.2990075,6.69289703 L29.8366144,7.61901052 C29.7406839,7.65536943 29.6643635,7.7254902 29.6214333,7.81275159 C29.5308028,7.77950915 29.4295722,7.77950915 29.3368217,7.81482924 L17.4992088,12.3763148 L9.23275488,9.20373977 C9.19671469,9.18244384 9.15802448,9.16790027 9.11562426,9.15855084 L2.69517012,6.69497468 L17.4997388,0.810024672 Z M25.5711517,12.9861057 C25.5711517,14.9178029 25.0268388,17.2208804 22.431945,17.2208804 L12.5680626,17.2208804 C9.97316881,17.2208804 9.42832592,14.9178029 9.42832592,12.9861057 L9.42832592,10.1158291 L17.3550481,13.157512 C17.4477985,13.1933515 17.5522091,13.1933515 17.6449596,13.1569926 L25.5711517,10.1033632 L25.5711517,12.9861057 Z M1.85405565,7.2086742 L1.85458566,7.2086742 L8.63332169,9.81041423 L8.63332169,12.9861057 C8.63332169,16.219452 10.0309391,18 12.5680626,18 L22.431945,18 C24.9690685,18 26.366156,16.219452 26.366156,12.9861057 L26.366156,9.79690949 L29.0845404,8.74925334 L29.0845404,16.1545254 C29.0845404,16.288534 29.1550308,16.4131931 29.2716314,16.4843527 C29.3357617,16.5238281 29.4089021,16.5440852 29.4820425,16.5440852 C29.5419328,16.5440852 29.6012932,16.5310999 29.6564134,16.5046098 L30.1530261,16.267238 C30.2897668,16.2023114 30.3766873,16.0662252 30.3766873,15.9171536 L30.3766873,8.2506168 L33.145952,7.2086742 C33.3600731,7.12608752 33.4989339,6.9266329 33.4999939,6.70120764 C33.5010539,6.47578237 33.3643132,6.27476951 33.151252,6.19062459 L17.6491996,0.028827425 C17.5532691,-0.00960914167 17.4462085,-0.00960914167 17.350278,0.028827425 L1.84822562,6.19062459 C1.63463449,6.27528892 1.49842376,6.47578237 1.50001377,6.70120764 C1.50054377,6.9266329 1.63993452,7.12608752 1.85405565,7.2086742 Z" id="Fill-1"></path>
                            </g>
                        </g>
                    </g>
                </g>
            </g>
        </g>
    </g>
</svg>