<?xml version="1.0" encoding="UTF-8"?>
<svg width="40px" height="40px" viewBox="0 0 40 40" version="1.1" xmlns="http://www.w3.org/2000/svg" xmlns:xlink="http://www.w3.org/1999/xlink">
    <!-- Generator: Sketch 52.2 (67145) - http://www.bohemiancoding.com/sketch -->
    <title>ic_modal_kerja_orange</title>
    <desc>Created with Sketch.</desc>
    <g id="Page-1" stroke="none" stroke-width="1" fill="none" fill-rule="evenodd">
        <g id="2-H-Feeds-Change-Content" transform="translate(-430.000000, -154.000000)">
            <g id="top-up-and-program" transform="translate(410.000000, 80.000000)">
                <g id="Enterpreneur" transform="translate(20.000000, 74.000000)">
                    <g id="icon">
                        <g id="ic_modal_kerja_orange">
                            <rect id="Rectangle-path" x="0" y="0" width="40" height="40"></rect>
                            <g id="Page-1" transform="translate(8.000000, 1.000000)" fill="#F47F22" stroke="#F47F22">
                                <path d="M9.50023323,18.3003731 C8.50713686,18.3003731 7.69969214,17.4925373 7.69969214,16.5 C7.69969214,15.5074627 8.50713686,14.6996269 9.50023323,14.6996269 C10.4928631,14.6996269 11.3003079,15.5074627 11.3003079,16.5 C11.3003079,17.4925373 10.4928631,18.3003731 9.50023323,18.3003731 M9.50023323,14 C8.12137326,14 7,15.1217351 7,16.5 C7,17.8782649 8.12137326,19 9.50023323,19 C10.8786267,19 12,17.8782649 12,16.5 C12,15.1217351 10.8786267,14 9.50023323,14" id="Fill-1"></path>
                                <path d="M20.2946966,8.76670064 C20.0345586,9.77640321 19.1075553,11.5571597 18.7213039,12.2758383 C18.6710447,12.3696583 18.5640111,12.4206671 18.4709385,12.3997171 C17.7863894,12.2412252 17.2214385,12.4816956 16.8840503,13.0778619 C16.8482173,13.141623 16.7877201,13.1880775 16.7179156,13.2044732 C16.67231,13.2154037 16.6039017,13.2181363 16.5354933,13.1730481 C12.4160989,10.4741318 8.22503859,9.86885681 6.61488218,9.73404762 C6.50272967,9.72493889 6.41058777,9.64614839 6.40034978,9.55096218 C6.30588106,8.69747431 5.7665252,8.08263512 4.88093917,7.8198483 C4.81206543,7.79935366 4.75808331,7.75381002 4.72690398,7.6973359 L4.71806208,7.48829058 C5.14014644,5.91384684 5.87774699,4.41682729 6.28261291,3.66034737 C6.33892185,3.55377525 6.46968888,3.50595442 6.57811849,3.55149807 C7.64752295,3.99828121 8.57417431,3.83223777 9.10887654,2.80568406 C9.14843241,2.73053705 9.23545531,2.68362709 9.32527039,2.68954777 C11.2039413,2.80887211 13.280857,3.40594927 15.499243,4.4639281 C17.2583156,5.30329745 18.6468458,6.0208744 19.2997502,6.48086519 C19.3728123,6.53232951 19.4086452,6.62250592 19.3937536,6.71587039 C19.2373916,7.71327618 19.8200262,8.26799775 20.181148,8.51028993 C20.2742206,8.57268472 20.3188955,8.67333617 20.2946966,8.76670064 Z M15.1859402,15.3204309 L12.3937615,18.4816152 C12.2848665,18.6054939 12.1331581,18.6801854 11.9665581,18.6920268 L11.235938,18.7448574 C10.8259531,18.7744608 10.4513358,18.9775854 10.2074855,19.3023116 L8.71739278,21.2880145 L9.05478104,19.9435661 L9.78633188,19.2558571 C9.87521623,19.1725122 9.91244528,19.049089 9.8845235,18.9311309 C9.85613635,18.8140838 9.76678663,18.7198084 9.64904976,18.6833735 L8.02818999,18.1860369 C7.91743357,18.1523346 7.79830061,18.1737401 7.70802016,18.2434219 C7.61773971,18.3126482 7.5674805,18.4214976 7.57539167,18.5339904 L7.63635424,19.4576154 L7.03836262,20.5743456 C7.15842631,19.6498096 7.23148832,19.0745934 7.23148832,18.8860427 C7.23148832,18.364568 6.83313748,17.8945576 6.78799726,17.8430933 C6.76565983,17.8175888 6.73913413,17.7952725 6.71028162,17.777055 L5.14712688,16.8033319 C4.98890342,16.7054131 4.8944347,16.5369016 4.8944347,16.3533607 L4.89396934,11.6596329 L4.76087549,8.49981489 C5.32722241,8.6924645 5.64553079,9.07047674 5.70556263,9.62383201 C5.75209894,10.0451107 6.10949782,10.3780347 6.55578106,10.4149251 C8.11195535,10.5451799 12.162476,11.1299603 16.1473804,13.7409773 C16.1869363,13.7669372 16.2283536,13.789709 16.2707017,13.8092928 L15.1859402,15.3204309 Z M20.0838871,6.8197099 C20.1383346,6.47084559 19.9945374,6.12881283 19.7078737,5.92659906 C19.0363547,5.45385604 17.6110608,4.71168552 15.8045212,3.84999979 C13.505162,2.75285343 11.3402927,2.13300445 9.37087598,2.00775943 C9.00835811,1.98407673 8.68388663,1.99618265 8.51682127,2.31589903 C8.14685759,3.02592442 7.58795647,3.23087082 6.85221737,2.92345123 C6.41198386,2.73899947 5.88845034,2.92299579 5.66414531,3.34381905 C5.2415956,4.13263495 4.46862745,5.70252433 4.03165147,7.3584912 C3.98744197,7.53246791 3.99256097,7.69004892 4.03444365,7.83624401 L4.19639002,11.6737514 L4.19639002,16.3533607 C4.19639002,16.7719068 4.41185314,17.1553843 4.77297493,17.3799144 L6.28633581,18.3226678 C6.37289335,18.4351606 6.53344363,18.6838289 6.53344363,18.8860427 C6.53344363,19.0504553 6.42315257,19.8934681 6.33473358,20.5702466 C6.24677995,21.2429262 6.16394531,21.8773492 6.14486542,22.147423 C6.13276598,22.3245878 6.24538386,22.4835351 6.4189643,22.5349994 C6.59301011,22.5869192 6.77822464,22.5145048 6.87548553,22.3482705 L8.29996206,19.689888 C8.3297453,19.6343248 8.34277546,19.57193 8.33905256,19.5090798 L8.30461569,18.9866942 L8.87747769,19.1629481 L8.49774138,19.5190994 C8.45027434,19.5641876 8.4167682,19.6215726 8.40048049,19.6844228 L7.69452463,22.5035743 C7.64659223,22.6912141 7.73873413,22.8802202 7.91743357,22.9621988 C7.97327714,22.9881587 8.03237826,23 8.09054865,23 C8.21805815,23 8.3423101,22.9421596 8.42142183,22.8369538 L10.7701095,19.7067392 C10.8929654,19.5432375 11.0814375,19.4407643 11.2880587,19.4261903 L12.0186788,19.3733597 C12.3700279,19.3478553 12.6906631,19.1902743 12.9219486,18.9283983 L15.7355341,15.7403433 L17.1325542,13.7965406 C17.2977581,13.6708401 17.4145642,13.5515158 17.495072,13.4080533 C17.6788905,13.0828717 17.9306519,12.976755 18.3108536,13.0646542 C18.7161849,13.1584742 19.1392,12.9644582 19.3388407,12.5941884 C19.8335218,11.6746623 20.7032854,9.97588437 20.9718,8.93430125 C21.0681301,8.56084338 20.9131642,8.17326697 20.5757759,7.94691507 C20.1741676,7.6772967 20.0089636,7.29837359 20.0838871,6.8197099 Z" id="Fill-3"></path>
                                <path d="M19.0925541,16.6272816 C19.0487897,16.6928746 18.9829126,16.7359917 18.9059793,16.7497525 C18.8295066,16.7625959 18.7567194,16.7447069 18.6963705,16.7006724 C18.6171337,16.6428772 18.5042675,16.6185665 18.4061429,16.6392076 C18.2725461,16.6671879 18.1338818,16.6965442 17.5221005,17.7579582 L14.1844834,21.5641872 C14.0384483,21.7297751 13.8375924,21.8325222 13.6169273,21.852246 C13.5938934,21.8545394 13.5717808,21.8586677 13.5496682,21.8650894 L12.2017224,22.2664451 C11.7944824,22.3155252 11.4392992,22.5567974 11.2600952,22.8939362 L8.97789296,26.3988043 C8.86180193,26.6162245 8.80007099,26.8616249 8.80007099,27.1079427 L8.80007099,27.3001348 C8.80007099,27.6482822 8.93228577,27.9789994 9.17322072,28.2317389 L11.1039251,30.2587003 C11.688987,30.873348 11.9534166,31.737983 11.8110669,32.5728031 L10.9228784,37.8005196 C10.8837207,37.9463837 10.7105055,38.4124151 10.1028703,38.2908617 C9.46252694,38.1633452 9.48003273,37.5413584 9.48878562,37.4257679 L10.0231729,32.6379374 C10.0738475,32.1861254 9.85502517,31.7402765 9.46621237,31.5017565 L7.63916071,30.3802537 C7.55531719,30.3288802 7.4599567,30.3031934 7.36505689,30.3031934 C7.27752794,30.3031934 7.18953831,30.324752 7.11030158,30.3687864 C6.94537861,30.4609836 6.84264726,30.634828 6.84264726,30.8228918 L6.84264726,32.7998558 C6.84264726,33.0420453 6.75005085,33.2723089 6.58236381,33.447988 L2.39755864,37.8344628 C2.36438978,37.862443 1.58215737,38.5105753 0.964387258,37.9096883 C0.36181954,37.3234795 0.927532964,36.5634263 0.964847937,36.5111354 L4.40657838,33.1420403 C4.55768099,32.9943413 4.63046822,32.7893059 4.60697361,32.5810595 L4.32319554,30.0403627 C4.28588057,29.7050586 4.20111569,29.3848914 4.07166498,29.0890348 C3.55616553,27.9156999 3.37788288,26.8932747 3.59394118,26.3543112 L5.67574816,21.1733813 C5.76419846,20.9527503 5.69509666,20.6972587 5.50667908,20.5513945 L3.01855351,18.630391 C2.91674352,18.551496 2.85961936,18.4281077 2.86514751,18.2992152 L3.14477947,12.2408069 C3.18025173,11.1431562 3.03513794,10.9032601 2.75320259,10.8440888 C2.67811196,10.8284932 2.61361695,10.7844588 2.57215586,10.7202418 C2.53115546,10.6569423 2.5173351,10.5821754 2.53299818,10.5092434 C3.58564897,5.69756082 5.67989426,1.8541778 6.29628234,0.791387671 C6.33866478,0.717996898 6.42066559,0.678549358 6.50174504,0.690016666 C13.6837257,1.69592894 21.6760402,6.01635199 23.2064148,6.87273057 C23.2870336,6.91814111 23.3266519,7.01675996 23.2999326,7.10758104 C21.756659,12.3463061 19.8439211,15.5099071 19.0925541,16.6272816 M23.5454743,6.2732197 L23.5450136,6.2732197 C21.9971332,5.40629119 13.9025481,1.03174245 6.59802688,0.00885855722 C6.23731547,-0.0420562913 5.88305356,0.12949464 5.69832141,0.446451039 C5.06903433,1.53171709 2.93148524,5.4539952 1.8581039,10.3629205 C1.80236178,10.6165774 1.84981169,10.8761972 1.9921614,11.0940761 C2.09996021,11.2601227 2.25244486,11.3867218 2.43118819,11.4614886 C2.45284009,11.6229483 2.46297502,11.9316483 2.45422212,12.2142027 L2.17505084,18.2675654 C2.15846641,18.6193824 2.31601852,18.9588148 2.5951898,19.1739415 L4.99117963,21.0238476 L2.95267646,26.0983609 C2.5583355,27.0804211 3.08765531,28.5665843 3.43823179,29.3651676 C3.54004178,29.5968073 3.60684019,29.8500054 3.6367843,30.1165057 L3.92240509,32.6512395 L0.452573241,36.0515257 C0.0914011528,36.5033377 -0.366974137,37.576219 0.481595998,38.4018652 C1.33293021,39.2288875 2.39940136,38.7357932 2.87159701,38.3339787 L7.08358221,33.9222759 C7.37380978,33.6181629 7.53366529,33.2191006 7.53366529,32.7998558 L7.53366529,31.123794 L9.10365824,32.0875066 C9.26627782,32.1870428 9.3574922,32.3732719 9.33630098,32.5617945 L8.80145302,37.355588 C8.75722787,37.8234542 8.94380274,38.7619387 9.96697009,38.9655981 C10.0862859,38.9894501 10.1977701,39 10.3028049,39 C11.1108353,39 11.4978054,38.351409 11.5977726,37.9436316 L12.4924106,32.6879349 C12.6706933,31.6407403 12.3390046,30.5559329 11.6051435,29.7857885 L9.67443913,27.7583684 C9.55650539,27.6340628 9.49108901,27.4716857 9.49108901,27.3001348 L9.49108901,27.1079427 C9.49108901,26.9740045 9.52425788,26.840525 9.57262914,26.7474105 L11.8548313,23.2430011 C11.944203,23.0755784 12.11189,22.9650336 12.3016897,22.9476032 C12.3247236,22.9457685 12.3468362,22.9416402 12.3689488,22.9347599 L13.7164339,22.5338628 C14.1001792,22.4898283 14.4498344,22.3072688 14.7045897,22.0169165 L18.0652407,18.1850008 C18.0804431,18.1675705 18.0933421,18.1487641 18.104859,18.1290403 C18.2531976,17.8712552 18.4379297,17.5721878 18.5613916,17.3955913 C18.7101908,17.443754 18.8682036,17.4547626 19.0257557,17.4272411 C19.2864999,17.3813718 19.520064,17.229086 19.6670205,17.009831 C20.4358932,15.8663111 22.3928562,12.6311541 23.9628492,7.30114921 C24.0812436,6.89979342 23.9098711,6.47733778 23.5454743,6.2732197" id="Fill-5"></path>
                                <path d="M14.4008487,5.74773841 L14.5735502,5.19836035 L14.0622348,5 L13.8785007,5.58471542 C13.3760962,5.523464 12.9602546,5.78967207 12.8057992,6.28109687 C12.6178218,6.87994723 12.9623762,7.31624576 13.3625177,7.69788918 C13.6714286,7.9994346 13.7673267,8.21946853 13.692645,8.45740671 C13.6103253,8.71937429 13.3540311,8.81690539 13.0553041,8.70099887 C12.819802,8.60959291 12.6008487,8.43431964 12.4548798,8.21946853 L12.3734088,8.09979269 L12,8.61289107 L12.0458274,8.68545043 C12.1777935,8.89323407 12.4247525,9.09913306 12.6925035,9.22964568 L12.5134371,9.79975499 L13.0298444,10 L13.2186704,9.39832265 C13.7376238,9.46004523 14.1823197,9.17404825 14.3422914,8.66519035 C14.5065064,8.14361101 14.3601132,7.7096683 13.854314,7.21306069 C13.4804809,6.84319638 13.3917963,6.67404825 13.4592645,6.45919714 C13.5157001,6.28015454 13.690099,6.13315115 14.0100424,6.25753864 C14.318529,6.37674331 14.4738331,6.57510366 14.5400283,6.66038447 L14.6214993,6.76356954 L15,6.26225028 L14.9422914,6.18686393 C14.8001414,6.00169619 14.6223479,5.85751979 14.4008487,5.74773841" id="Fill-8"></path>
                            </g>
                        </g>
                    </g>
                </g>
            </g>
        </g>
    </g>
</svg>