<?xml version="1.0" encoding="UTF-8"?>
<svg width="40px" height="40px" viewBox="0 0 40 40" version="1.1" xmlns="http://www.w3.org/2000/svg" xmlns:xlink="http://www.w3.org/1999/xlink">
    <!-- Generator: Sketch 52.2 (67145) - http://www.bohemiancoding.com/sketch -->
    <title>ic_pelatihan_orange</title>
    <desc>Created with Sketch.</desc>
    <g id="Page-1" stroke="none" stroke-width="1" fill="none" fill-rule="evenodd">
        <g id="2-H-Feeds-Change-Content" transform="translate(-430.000000, -154.000000)">
            <g id="top-up-and-program" transform="translate(410.000000, 80.000000)">
                <g id="Training" transform="translate(20.000000, 74.000000)">
                    <g id="icon">
                        <g id="ic_pelatihan_orange">
                            <rect id="Rectangle-path" x="0" y="0" width="40" height="40"></rect>
                            <g id="Page-1" fill="#F47F22" stroke="#F47F22">
                                <path d="M10.7689582,2.9446327 C8.67484768,2.9446327 6.97164509,4.69331924 6.97164509,6.84210526 C6.97164509,8.99145087 8.67484768,10.7395778 10.7689582,10.7395778 C12.8630687,10.7395778 14.5668164,8.99145087 14.5668164,6.84210526 C14.5668164,4.69331924 12.8630687,2.9446327 10.7689582,2.9446327 M10.7689582,11.5789474 C8.22396787,11.5789474 6.15384615,9.45422327 6.15384615,6.84210526 C6.15384615,4.22998725 8.22396787,2.10526316 10.7689582,2.10526316 C13.3139485,2.10526316 15.3846154,4.22998725 15.3846154,6.84210526 C15.3846154,9.45422327 13.3139485,11.5789474 10.7689582,11.5789474" id="Fill-1"></path>
                                <path d="M11.2560792,25.1851385 C11.7695243,25.1851385 12.1846502,25.5443003 12.2709527,26.0690132 L13.1498178,39.0167947 C13.1623808,39.0813316 13.2503219,39.1582146 13.3551958,39.1582146 L16.4702783,39.1582146 C16.5511186,39.1582146 16.6030093,39.1138806 16.6264967,39.0880658 C16.6505303,39.0616899 16.6887656,39.0050097 16.6827572,38.9219535 L15.0817916,18.006954 C15.0517496,17.6191715 15.2309092,17.24598 15.5493544,17.0338501 L23.6994763,11.6155582 C23.7972494,11.5504601 23.826199,11.4152133 23.7628377,11.314199 L22.5485946,9.36237933 C22.4885106,9.26697698 22.3677963,9.23330557 22.2689308,9.28717983 L13.7785149,13.9444977 C13.6299436,14.0258703 13.4617084,14.0696432 13.2929269,14.0696432 L8.64843346,14.0696432 C7.33641731,14.0696432 5.63440136,15.6303133 3.85482242,18.4654464 C2.41007524,20.76801 1.21713466,23.4325413 0.83205082,24.5897157 C0.798731509,24.6884851 0.836420566,24.7951113 0.921630607,24.8489855 L2.75637759,26.0005479 C2.82356243,26.042076 2.88528509,26.0347806 2.91751196,26.0269239 C2.94973883,26.0190672 3.00927662,25.9954972 3.04969677,25.9281544 L5.29028388,22.1664961 C5.54209048,21.7439199 6.01839276,21.5592883 6.48103959,21.7085649 C6.94150154,21.8578415 7.23099719,22.289958 7.20150141,22.7849278 L6.24124979,38.9258819 C6.23633383,39.0083768 6.27511532,39.0633735 6.2986027,39.0891882 C6.32209009,39.115003 6.37398082,39.1582146 6.45372868,39.1582146 L9.44864314,39.1582146 C9.55788679,39.1582146 9.64855901,39.0745973 9.66057581,38.9634816 L10.2248192,26.1559976 C10.2859957,25.5886343 10.6956593,25.2008518 11.2238523,25.1856997 C11.2347767,25.1851385 11.2451548,25.1851385 11.2560792,25.1851385 M16.4702783,40 L13.3551958,40 C12.8493977,40 12.4217089,39.6284921 12.3370451,39.1161254 L11.4587262,26.1683438 C11.4363312,26.0454432 11.3259951,26.0235567 11.2467935,26.0269239 C11.17797,26.0291687 11.0594407,26.0572282 11.0408692,26.2216569 L10.4766258,39.0291409 C10.4165418,39.5942594 9.9751975,40 9.44864314,40 L6.45372868,40 C6.16969521,40 5.89603988,39.8782217 5.70213241,39.6660918 C5.50767873,39.4539619 5.40608214,39.1655101 5.42301491,38.8748135 L6.38326653,22.7338595 C6.39309845,22.5795322 6.28276238,22.5273415 6.23524139,22.5116281 C6.18662797,22.4959148 6.0675524,22.4740284 5.98889698,22.6059081 L3.74830986,26.3675664 C3.60465447,26.6088782 3.3774277,26.7789188 3.10978077,26.8451393 C2.84049519,26.9113597 2.56410878,26.8664645 2.32923494,26.7188715 L0.495034182,25.5673091 C0.078815903,25.3063556 -0.100889889,24.7923053 0.0564209562,24.3175384 C0.540916512,22.8629332 4.66377159,13.2278578 8.64843346,13.2278578 L13.2929269,13.2278578 C13.3273387,13.2278578 13.3612042,13.2188787 13.3923386,13.202043 L21.8827546,8.54472513 C22.3546871,8.28601642 22.950065,8.44539445 23.2384682,8.9089376 L24.4532575,10.8601961 C24.7585935,11.3506764 24.619854,12.0061466 24.1446442,12.3220967 L15.9950684,17.7403886 C15.9295222,17.7836003 15.8923794,17.8604833 15.898934,17.9407335 L17.4998996,38.8562943 C17.5222946,39.150358 17.4228828,39.4427381 17.2284292,39.6593575 C17.0334293,39.875977 16.7570428,40 16.4702783,40" id="Fill-3"></path>
                                <path d="M28.6551355,1.28651943 L29.8066166,1.28651943 C29.7701196,1.15824958 29.7111161,1.02779641 29.6162238,0.938826256 C29.5578286,0.884243341 29.4538121,0.811648063 29.2305719,0.811648063 C29.0061152,0.811648063 28.9020987,0.885334999 28.8443118,0.940463744 C28.7488112,1.02997972 28.6910243,1.15934123 28.6551355,1.28651943 M30.3121004,2.10526316 L28.1496517,2.10526316 C27.9063382,2.10526316 27.7056046,1.9338728 27.6940472,1.71608697 C27.6891809,1.63039179 27.6630247,0.865685149 28.1831073,0.375530569 C28.7153556,-0.125540594 29.7476131,-0.124994765 30.2786448,0.376076398 C30.7981191,0.866230979 30.7719629,1.63039179 30.7677049,1.71608697 C30.7555392,1.9338728 30.5548056,2.10526316 30.3121004,2.10526316" id="Fill-6"></path>
                                <path d="M37.929904,16.8421053 L21.5572755,16.8421053 C20.9832815,16.8421053 20.4284395,16.5969985 20.0346988,16.170165 C19.9693569,16.0989326 19.9304898,16.0075084 19.9242936,15.9110362 L19.8741607,15.0910223 C19.8606417,14.8593768 20.0375152,14.6597017 20.2701546,14.6456796 C20.4977243,14.6333401 20.703889,14.8077754 20.7179712,15.0399818 L20.7585282,15.6995825 C20.9815916,15.8947705 21.2604209,16.0007778 21.5572755,16.0007778 L37.929904,16.0007778 C38.6052904,16.0007778 39.1550629,15.4539149 39.1550629,14.7808529 L39.1550629,1.89395908 L20.3321166,1.89395908 L20.3321166,10.512518 C20.3321166,10.7447244 20.1428507,10.9331818 19.9096481,10.9331818 C19.6764454,10.9331818 19.4871795,10.7447244 19.4871795,10.512518 L19.4871795,1.47329533 C19.4871795,1.24108894 19.6764454,1.05263158 19.9096481,1.05263158 L39.5775314,1.05263158 C39.8107341,1.05263158 40,1.24108894 40,1.47329533 L40,14.7808529 C40,15.9177668 39.0711324,16.8421053 37.929904,16.8421053" id="Fill-9"></path>
                                <path d="M33.3602905,4.21052632 L35.3582925,4.21052632 C35.6564071,4.21052632 35.8974359,4.44630094 35.8974359,4.73653269 C35.8974359,5.02738327 35.6564071,5.26315789 35.3582925,5.26315789 L33.3602905,5.26315789 C33.0621759,5.26315789 32.8205128,5.02738327 32.8205128,4.73653269 C32.8205128,4.44630094 33.0621759,4.21052632 33.3602905,4.21052632" id="Fill-11"></path>
                                <path d="M24.069546,4.21052632 L31.3156332,4.21052632 C31.5800602,4.21052632 31.7948718,4.44630094 31.7948718,4.73653269 C31.7948718,5.02738327 31.5800602,5.26315789 31.3156332,5.26315789 L24.069546,5.26315789 C23.8045552,5.26315789 23.5897436,5.02738327 23.5897436,4.73653269 C23.5897436,4.44630094 23.8045552,4.21052632 24.069546,4.21052632" id="Fill-13"></path>
                                <path d="M31.7948718,6.84210526 C31.7948718,7.13312693 31.5625131,7.36842105 31.2758764,7.36842105 L28.2113031,7.36842105 C27.9246664,7.36842105 27.6923077,7.13312693 27.6923077,6.84210526 C27.6923077,6.55108359 27.9246664,6.31578947 28.2113031,6.31578947 L31.2758764,6.31578947 C31.5625131,6.31578947 31.7948718,6.55108359 31.7948718,6.84210526" id="Fill-15"></path>
                                <path d="M21.5384615,6.84210526 C21.5384615,6.55108359 21.7467829,6.31578947 22.0037673,6.31578947 L26.2013609,6.31578947 C26.4583453,6.31578947 26.6666667,6.55108359 26.6666667,6.84210526 C26.6666667,7.13312693 26.4583453,7.36842105 26.2013609,7.36842105 L22.0037673,7.36842105 C21.7467829,7.36842105 21.5384615,7.13312693 21.5384615,6.84210526" id="Fill-17"></path>
                                <path d="M35.4440697,9.47368421 L26.093859,9.47368421 C25.8434688,9.47368421 25.6410256,9.23790959 25.6410256,8.94767784 C25.6410256,8.65682725 25.8434688,8.42105263 26.093859,8.42105263 L35.4440697,8.42105263 C35.69446,8.42105263 35.8974359,8.65682725 35.8974359,8.94767784 C35.8974359,9.23790959 35.69446,9.47368421 35.4440697,9.47368421" id="Fill-19"></path>
                                <path d="M36.4041587,7.36842105 L33.3394311,7.36842105 C33.052837,7.36842105 32.8205128,7.13264643 32.8205128,6.84241468 C32.8205128,6.5515641 33.052837,6.31578947 33.3394311,6.31578947 L36.4041587,6.31578947 C36.6907528,6.31578947 36.9230769,6.5515641 36.9230769,6.84241468 C36.9230769,7.13264643 36.6907528,7.36842105 36.4041587,7.36842105" id="Fill-21"></path>
                            </g>
                        </g>
                    </g>
                </g>
            </g>
        </g>
    </g>
</svg>