<?xml version="1.0" encoding="UTF-8"?>
<svg width="40px" height="40px" viewBox="0 0 40 40" version="1.1" xmlns="http://www.w3.org/2000/svg" xmlns:xlink="http://www.w3.org/1999/xlink">
    <!-- Generator: Sketch 52.2 (67145) - http://www.bohemiancoding.com/sketch -->
    <title>ic_wallet_orange</title>
    <desc>Created with Sketch.</desc>
    <g id="Page-1" stroke="none" stroke-width="1" fill="none" fill-rule="evenodd">
        <g id="1-H-Feeds" transform="translate(-430.000000, -154.000000)">
            <g id="top-up-and-program" transform="translate(410.000000, 80.000000)">
                <g id="wallet" transform="translate(20.000000, 74.000000)">
                    <g id="ic_wallet_orange">
                        <polygon id="base" points="0 0 40 0 40 40 0 40"></polygon>
                        <path d="M29.2100872,22.2082611 C29.2100872,23.2496779 28.36528,24.095253 27.3230953,24.095253 C26.2816785,24.095253 25.4368714,23.2496779 25.4368714,22.2082611 C25.4368714,21.1668444 26.2816785,20.3212692 27.3230953,20.3212692 C28.36528,20.3212692 29.2100872,21.1668444 29.2100872,22.2082611 Z M33.6639871,12.096304 C34.5118662,12.096304 35.2,12.7836698 35.2,13.6323169 L35.2,31.4884673 C35.2,32.3363464 34.5118662,33.0244802 33.6639871,33.0244802 L6.33601293,33.0244802 C5.48736579,33.0244802 4.8,32.3363464 4.8,31.4884673 L4.8,18.6881035 C4.8,17.8402243 5.48736579,17.1520905 6.33601293,17.1520905 C7.18389207,17.1520905 7.87202587,17.8402243 7.87202587,18.6881035 L7.87202587,29.9524543 L32.1279741,29.9524543 L32.1279741,15.1683298 L6.33601293,15.1683298 C5.48736579,15.1683298 4.8,14.480196 4.8,13.6323169 L4.8,7.93601293 C4.8,7.08813379 5.48736579,6.4 6.33601293,6.4 L29.499856,6.4 C30.3477351,6.4 31.0358689,7.08813379 31.0358689,7.93601293 L31.0358689,9.31228052 C31.0358689,10.1601597 30.3477351,10.8482935 29.499856,10.8482935 C28.7049693,10.8482935 28.0513958,10.2454084 27.9715231,9.47202587 L7.87202587,9.47202587 L7.87202587,12.096304 L33.6639871,12.096304 Z" id="Fill-4" fill="#F47F22"></path>
                    </g>
                </g>
            </g>
        </g>
    </g>
</svg>