<?xml version="1.0" encoding="UTF-8"?>
<svg width="38px" height="38px" viewBox="0 0 38 38" version="1.1" xmlns="http://www.w3.org/2000/svg" xmlns:xlink="http://www.w3.org/1999/xlink">
    <!-- Generator: Sketch 52.2 (67145) - http://www.bohemiancoding.com/sketch -->
    <title>ic_play_circle</title>
    <desc>Created with Sketch.</desc>
    <g id="Page-1" stroke="none" stroke-width="1" fill="none" fill-rule="evenodd">
        <g id="68-H-Audio-Player-That-Has-Download" transform="translate(-506.000000, -116.000000)">
            <g id="content" transform="translate(0.000000, 60.000000)">
                <g id="item" transform="translate(40.000000, 0.000000)">
                    <g id="right" transform="translate(246.000000, 0.000000)">
                        <g id="player" transform="translate(0.000000, 56.000000)">
                            <g id="panel" transform="translate(168.000000, 0.000000)">
                                <g id="ic_play_circle" transform="translate(52.000000, 0.000000)">
                                    <g id="Group">
                                        <polygon id="Shape" points="0 0 38 0 38 38 0 38"></polygon>
                                        <path d="M15.8333333,26.125 L25.3333333,19 L15.8333333,11.875 L15.8333333,26.125 L15.8333333,26.125 Z M19,3.16666667 C10.26,3.16666667 3.16666667,10.26 3.16666667,19 C3.16666667,27.74 10.26,34.8333333 19,34.8333333 C27.74,34.8333333 34.8333333,27.74 34.8333333,19 C34.8333333,10.26 27.74,3.16666667 19,3.16666667 L19,3.16666667 Z M19,31.6666667 C12.0175,31.6666667 6.33333333,25.9825 6.33333333,19 C6.33333333,12.0175 12.0175,6.33333333 19,6.33333333 C25.9825,6.33333333 31.6666667,12.0175 31.6666667,19 C31.6666667,25.9825 25.9825,31.6666667 19,31.6666667 L19,31.6666667 Z" id="Shape" fill="#FFFFFF" fill-rule="nonzero"></path>
                                    </g>
                                </g>
                            </g>
                        </g>
                    </g>
                </g>
            </g>
        </g>
    </g>
</svg>