<?xml version="1.0" encoding="UTF-8"?>
<svg width="40px" height="40px" viewBox="0 0 40 40" version="1.1" xmlns="http://www.w3.org/2000/svg" xmlns:xlink="http://www.w3.org/1999/xlink">
    <!-- Generator: Sketch 52.2 (67145) - http://www.bohemiancoding.com/sketch -->
    <title>ic_button_add</title>
    <desc>Created with Sketch.</desc>
    <g id="Page-1" stroke="none" stroke-width="1" fill="none" fill-rule="evenodd">
        <g id="21-H-Detail-Own-Pustaka-All-Empty" transform="translate(-722.000000, -620.000000)">
            <g id="ic_button_add" transform="translate(722.000000, 620.000000)">
                <circle id="Oval" fill="#F47F22" fill-rule="nonzero" cx="20" cy="20" r="20"></circle>
                <g id="ic_add" transform="translate(8.333333, 8.333333)">
                    <polygon id="Shape" points="0 0 23.3333333 0 23.3333333 23.3333333 0 23.3333333"></polygon>
                    <path d="M12.2222222,3.88888889 L11.1111111,3.88888889 C10.5588264,3.88888889 10.1111111,4.33660414 10.1111111,4.88888889 L10.1111111,10.1111111 L4.88888889,10.1111111 C4.33660414,10.1111111 3.88888889,10.5588264 3.88888889,11.1111111 L3.88888889,12.2222222 C3.88888889,12.774507 4.33660414,13.2222222 4.88888889,13.2222222 L10.1111111,13.2222222 L10.1111111,18.4444444 C10.1111111,18.9967292 10.5588264,19.4444444 11.1111111,19.4444444 L12.2222222,19.4444444 C12.774507,19.4444444 13.2222222,18.9967292 13.2222222,18.4444444 L13.2222222,13.2222222 L18.4444444,13.2222222 C18.9967292,13.2222222 19.4444444,12.774507 19.4444444,12.2222222 L19.4444444,11.1111111 C19.4444444,10.5588264 18.9967292,10.1111111 18.4444444,10.1111111 L13.2222222,10.1111111 L13.2222222,4.88888889 C13.2222222,4.33660414 12.774507,3.88888889 12.2222222,3.88888889 Z" id="Shape" fill="#FFFFFF" fill-rule="nonzero"></path>
                </g>
            </g>
        </g>
    </g>
</svg>