<?xml version="1.0" encoding="UTF-8"?>
<svg width="20px" height="20px" viewBox="0 0 20 20" version="1.1" xmlns="http://www.w3.org/2000/svg" xmlns:xlink="http://www.w3.org/1999/xlink">
    <!-- Generator: Sketch 52.2 (67145) - http://www.bohemiancoding.com/sketch -->
    <title>ic_browser_option</title>
    <desc>Created with Sketch.</desc>
    <g id="Page-1" stroke="none" stroke-width="1" fill="none" fill-rule="evenodd">
        <g id="5-H-Feeds-Web-Detail-Option" transform="translate(-628.000000, -79.000000)">
            <g id="pop_up_share" transform="translate(608.000000, 49.000000)">
                <g id="Group-2" transform="translate(20.000000, 30.000000)">
                    <g id="ic_browser_option">
                        <path d="M0,10 C0,4.47715223 4.47715223,0 10,0 C15.5228478,0 20,4.47715223 20,10 C20,15.5228478 15.5228478,20 10,20 C4.47715223,20 0,15.5228478 0,10 Z" id="Mail" fill="#FAAF3F"></path>
                        <g id="outline-open_in_browser-24px" transform="translate(1.000000, 1.000000)">
                            <polygon id="Path" points="0 0 18 0 18 18 0 18"></polygon>
                            <path d="M14.25,3 L3.75,3 C2.9175,3 2.25,3.675 2.25,4.5 L2.25,13.5 C2.25,14.325 2.9175,15 3.75,15 L6.75,15 L6.75,13.5 L3.75,13.5 L3.75,6 L14.25,6 L14.25,13.5 L11.25,13.5 L11.25,15 L14.25,15 C15.075,15 15.75,14.325 15.75,13.5 L15.75,4.5 C15.75,3.675 15.0825,3 14.25,3 Z M9,7.5 L6,10.5 L8.25,10.5 L8.25,15 L9.75,15 L9.75,10.5 L12,10.5 L9,7.5 Z" id="Shape" fill="#FFFFFF" fill-rule="nonzero"></path>
                        </g>
                        <path d="M20,10.0333309 C20,15.5377705 15.6779473,20 10.3464246,20 C8.36908912,20 6.53060547,19.3862237 5,18.3331661 L16.061351,2 C18.449979,3.81434549 20,6.73695391 20,10.0333309 Z" id="reflec" fill-opacity="0.08" fill="#000000"></path>
                    </g>
                </g>
            </g>
        </g>
    </g>
</svg>