<?xml version="1.0" encoding="UTF-8"?>
<svg width="24px" height="24px" viewBox="0 0 24 24" version="1.1" xmlns="http://www.w3.org/2000/svg" xmlns:xlink="http://www.w3.org/1999/xlink">
    <!-- Generator: Sketch 52.2 (67145) - http://www.bohemiancoding.com/sketch -->
    <title>ic_create_new_folder</title>
    <desc>Created with Sketch.</desc>
    <g id="Page-1" stroke="none" stroke-width="1" fill="none" fill-rule="evenodd">
        <g id="85-H-Select-Destination" transform="translate(-756.000000, -549.000000)">
            <g id="pop_up_more" transform="translate(530.000000, 279.000000)">
                <g id="bottombar" transform="translate(0.000000, 258.000000)">
                    <g id="ic_create_new_folder" transform="translate(226.000000, 12.000000)">
                        <polygon id="Path" points="0 0 24 0 24 24 0 24"></polygon>
                        <path d="M20,6 L12,6 L10,4 L4,4 C2.89,4 2.01,4.89 2.01,6 L2,18 C2,19.11 2.89,20 4,20 L20,20 C21.11,20 22,19.11 22,18 L22,8 C22,6.89 21.11,6 20,6 Z M19,14 L16,14 L16,17 L14,17 L14,14 L11,14 L11,12 L14,12 L14,9 L16,9 L16,12 L19,12 L19,14 Z" id="Shape" fill="#F47F22"></path>
                    </g>
                </g>
            </g>
        </g>
    </g>
</svg>