<?xml version="1.0" encoding="UTF-8"?>
<svg width="40px" height="40px" viewBox="0 0 40 40" version="1.1" xmlns="http://www.w3.org/2000/svg" xmlns:xlink="http://www.w3.org/1999/xlink">
    <!-- Generator: Sketch 52.2 (67145) - http://www.bohemiancoding.com/sketch -->
    <title>ic_edit_foto</title>
    <desc>Created with Sketch.</desc>
    <g id="Page-1" stroke="none" stroke-width="1" fill="none" fill-rule="evenodd">
        <g id="21-H-Detail-Own-Pustaka-All-Empty" transform="translate(-164.000000, -184.000000)">
            <g id="pratinjau">
                <g id="Mask" transform="translate(40.000000, 60.000000)">
                    <g id="ic_edit_foto" transform="translate(124.000000, 124.000000)">
                        <circle id="oval" fill="#F47F22" cx="20" cy="20" r="20"></circle>
                        <g id="ic_camera" transform="translate(6.666667, 6.666667)">
                            <polygon id="Shape" points="0 0 26.6666667 0 26.6666667 26.6666667 0 26.6666667"></polygon>
                            <path d="M15.6888889,4.44444444 L17.7222222,6.66666667 L22.2222222,6.66666667 L22.2222222,20 L4.44444444,20 L4.44444444,6.66666667 L8.94444444,6.66666667 L10.9777778,4.44444444 L15.6888889,4.44444444 Z M16.6666667,2.22222222 L10,2.22222222 L7.96666667,4.44444444 L4.44444444,4.44444444 C3.22222222,4.44444444 2.22222222,5.44444444 2.22222222,6.66666667 L2.22222222,20 C2.22222222,21.2222222 3.22222222,22.2222222 4.44444444,22.2222222 L22.2222222,22.2222222 C23.4444444,22.2222222 24.4444444,21.2222222 24.4444444,20 L24.4444444,6.66666667 C24.4444444,5.44444444 23.4444444,4.44444444 22.2222222,4.44444444 L18.7,4.44444444 L16.6666667,2.22222222 Z" id="XMLID_34_" fill="#FFFFFF" fill-rule="nonzero"></path>
                            <path d="M13.3333333,10 C15.1666667,10 16.6666667,11.5 16.6666667,13.3333333 C16.6666667,15.1666667 15.1666667,16.6666667 13.3333333,16.6666667 C11.5,16.6666667 10,15.1666667 10,13.3333333 C10,11.5 11.5,10 13.3333333,10 Z M13.3333333,7.77777778 C10.2666667,7.77777778 7.77777778,10.2666667 7.77777778,13.3333333 C7.77777778,16.4 10.2666667,18.8888889 13.3333333,18.8888889 C16.4,18.8888889 18.8888889,16.4 18.8888889,13.3333333 C18.8888889,10.2666667 16.4,7.77777778 13.3333333,7.77777778 Z" id="XMLID_31_" fill="#FFFFFF" fill-rule="nonzero"></path>
                        </g>
                    </g>
                </g>
            </g>
        </g>
    </g>
</svg>