<?xml version="1.0" encoding="UTF-8"?>
<svg width="80px" height="80px" viewBox="0 0 80 80" version="1.1" xmlns="http://www.w3.org/2000/svg" xmlns:xlink="http://www.w3.org/1999/xlink">
    <!-- Generator: Sketch 52.2 (67145) - http://www.bohemiancoding.com/sketch -->
    <title>ic_empty_ava</title>
    <desc>Created with Sketch.</desc>
    <g id="Page-1" stroke="none" stroke-width="1" fill="none" fill-rule="evenodd">
        <g id="26-H-Own-Pustaka-Upload-Ava" transform="translate(-361.000000, -256.000000)">
            <g id="pop_up" transform="translate(141.000000, 60.000000)">
                <g id="ic_empty_ava" transform="translate(220.000000, 196.000000)">
                    <polygon id="Path" points="0 0 80 0 80 80 0 80"></polygon>
                    <path d="M70.0666667,16.6666667 L63.3333333,16.6666667 L63.3333333,9.93333333 C63.3333333,8.13333333 61.8666667,6.66666667 60.0666667,6.66666667 L59.9666667,6.66666667 C58.1333333,6.66666667 56.6666667,8.13333333 56.6666667,9.93333333 L56.6666667,16.6666667 L49.9666667,16.6666667 C48.1666667,16.6666667 46.7,18.1333333 46.6666667,19.9333333 L46.6666667,20.0333333 C46.6666667,21.8666667 48.1333333,23.3333333 49.9666667,23.3333333 L56.6666667,23.3333333 L56.6666667,30.0333333 C56.6666667,31.8333333 58.1333333,33.3333333 59.9666667,33.3 L60.0666667,33.3 C61.8666667,33.3 63.3333333,31.8333333 63.3333333,30.0333333 L63.3333333,23.3333333 L70.0666667,23.3333333 C71.8666667,23.3333333 73.3333333,21.8666667 73.3333333,20.0666667 L73.3333333,19.9333333 C73.3333333,18.1333333 71.8666667,16.6666667 70.0666667,16.6666667 Z M53.3333333,30.0333333 L53.3333333,26.6666667 L49.9666667,26.6666667 C48.2,26.6666667 46.5333333,25.9666667 45.2666667,24.7333333 C44.0333333,23.4666667 43.3333333,21.8 43.3333333,19.9333333 C43.3333333,18.7333333 43.6666667,17.6333333 44.2333333,16.6666667 L16.6666667,16.6666667 C13,16.6666667 10,19.6666667 10,23.3333333 L10,63.3333333 C10,67 13,70 16.6666667,70 L56.6666667,70 C60.3333333,70 63.3333333,67 63.3333333,63.3333333 L63.3333333,35.7333333 C62.3333333,36.3 61.2,36.6666667 59.9333333,36.6666667 C56.3,36.6333333 53.3333333,33.6666667 53.3333333,30.0333333 Z M53.2,63.3333333 L20,63.3333333 C18.6333333,63.3333333 17.8333333,61.7666667 18.6666667,60.6666667 L25.2666667,51.9 C25.9666667,50.9666667 27.3333333,51.0333333 28,51.9666667 L33.3333333,60 L42.0333333,48.4 C42.7,47.5333333 44,47.5 44.6666667,48.3666667 L54.5,60.6333333 C55.3666667,61.7333333 54.6,63.3333333 53.2,63.3333333 Z" id="Shape" fill="#9B9B9B" fill-rule="nonzero"></path>
                </g>
            </g>
        </g>
    </g>
</svg>