<?xml version="1.0" encoding="UTF-8"?>
<svg width="20px" height="20px" viewBox="0 0 20 20" version="1.1" xmlns="http://www.w3.org/2000/svg" xmlns:xlink="http://www.w3.org/1999/xlink">
    <!-- Generator: Sketch 52.2 (67145) - http://www.bohemiancoding.com/sketch -->
    <title>ic_folder_move_thumbnail_on_hit</title>
    <desc>Created with Sketch.</desc>
    <g id="Page-1" stroke="none" stroke-width="1" fill="none" fill-rule="evenodd">
        <g id="86-H-Selected-Target" transform="translate(-540.000000, -349.000000)">
            <g id="pop_up_more" transform="translate(530.000000, 279.000000)">
                <g id="item" transform="translate(10.000000, 70.000000)">
                    <g id="ic_folder_move_thumbnail_on_hit">
                        <polygon id="Path" points="0 0 20 0 20 20 0 20"></polygon>
                        <path d="M16.6666667,5 L10,5 L8.33333333,3.33333333 L3.33333333,3.33333333 C2.41666667,3.33333333 1.675,4.08333333 1.675,5 L1.66666667,15 C1.66666667,15.9166667 2.41666667,16.6666667 3.33333333,16.6666667 L16.6666667,16.6666667 C17.5833333,16.6666667 18.3333333,15.9166667 18.3333333,15 L18.3333333,6.66666667 C18.3333333,5.75 17.5833333,5 16.6666667,5 Z M16.6666667,15 L3.33333333,15 L3.33333333,6.66666667 L16.6666667,6.66666667 L16.6666667,15 Z" id="Shape" fill="#FFFFFF" fill-rule="nonzero"></path>
                    </g>
                </g>
            </g>
        </g>
    </g>
</svg>