<?xml version="1.0" encoding="UTF-8"?>
<svg width="20px" height="20px" viewBox="0 0 20 20" version="1.1" xmlns="http://www.w3.org/2000/svg" xmlns:xlink="http://www.w3.org/1999/xlink">
    <!-- Generator: Sketch 52.2 (67145) - http://www.bohemiancoding.com/sketch -->
    <title>ic_files_move_thumbnail_on_hit</title>
    <desc>Created with Sketch.</desc>
    <g id="Page-1" stroke="none" stroke-width="1" fill="none" fill-rule="evenodd">
        <g id="86-H-Selected-Target" transform="translate(-540.000000, -379.000000)">
            <g id="pop_up_more" transform="translate(530.000000, 279.000000)">
                <g id="Group-2" transform="translate(10.000000, 100.000000)">
                    <g id="item">
                        <g id="ic_files_move_thumbnail_on_hit">
                            <polygon id="Path" points="0 0 20 0 20 20 0 20"></polygon>
                            <path d="M11.6666667,1.66666667 L5,1.66666667 C4.08333333,1.66666667 3.34166667,2.41666667 3.34166667,3.33333333 L3.33333333,16.6666667 C3.33333333,17.5833333 4.075,18.3333333 4.99166667,18.3333333 L15,18.3333333 C15.9166667,18.3333333 16.6666667,17.5833333 16.6666667,16.6666667 L16.6666667,6.66666667 L11.6666667,1.66666667 Z M5,16.6666667 L5,3.33333333 L10.8333333,3.33333333 L10.8333333,7.5 L15,7.5 L15,16.6666667 L5,16.6666667 Z" id="Shape" fill="#FFFFFF" fill-rule="nonzero"></path>
                        </g>
                    </g>
                </g>
            </g>
        </g>
    </g>
</svg>