<?xml version="1.0" encoding="UTF-8"?>
<svg width="20px" height="20px" viewBox="0 0 20 20" version="1.1" xmlns="http://www.w3.org/2000/svg" xmlns:xlink="http://www.w3.org/1999/xlink">
    <!-- Generator: Sketch 52.2 (67145) - http://www.bohemiancoding.com/sketch -->
    <title>ic_flag_active</title>
    <desc>Created with Sketch.</desc>
    <g id="Page-1" stroke="none" stroke-width="1" fill="none" fill-rule="evenodd">
        <g id="9-H-Topic-Discussion-Detail" transform="translate(-752.000000, -386.000000)">
            <g id="n1" transform="translate(20.000000, 376.000000)">
                <g id="flag_report" transform="translate(732.000000, 10.000000)">
                    <g id="ic_flag_active">
                        <polygon id="Path" points="0 0 20 0 20 20 0 20"></polygon>
                        <path d="M12,5 L11.8,4 C11.725,3.61666667 11.3833333,3.33333333 10.9833333,3.33333333 L5,3.33333333 C4.54166667,3.33333333 4.16666667,3.70833333 4.16666667,4.16666667 L4.16666667,16.6666667 C4.16666667,17.125 4.54166667,17.5 5,17.5 C5.45833333,17.5 5.83333333,17.125 5.83333333,16.6666667 L5.83333333,11.6666667 L10.5,11.6666667 L10.7,12.6666667 C10.775,13.0583333 11.1166667,13.3333333 11.5166667,13.3333333 L15.8333333,13.3333333 C16.2916667,13.3333333 16.6666667,12.9583333 16.6666667,12.5 L16.6666667,5.83333333 C16.6666667,5.375 16.2916667,5 15.8333333,5 L12,5 Z" id="Path" fill="#F47F22"></path>
                    </g>
                </g>
            </g>
        </g>
    </g>
</svg>