<?xml version="1.0" encoding="UTF-8"?>
<svg width="20px" height="20px" viewBox="0 0 20 20" version="1.1" xmlns="http://www.w3.org/2000/svg" xmlns:xlink="http://www.w3.org/1999/xlink">
    <!-- Generator: Sketch 52.2 (67145) - http://www.bohemiancoding.com/sketch -->
    <title>ic_flag_not_active</title>
    <desc>Created with Sketch.</desc>
    <g id="Page-1" stroke="none" stroke-width="1" fill="none" fill-rule="evenodd">
        <g id="9-H-Topic-Discussion-Detail" transform="translate(-752.000000, -386.000000)">
            <g id="n1" transform="translate(20.000000, 376.000000)">
                <g id="flag_report" transform="translate(732.000000, 10.000000)">
                    <g id="ic_flag_not_active">
                        <polygon id="Path" points="0 0 20 0 20 20 0 20"></polygon>
                        <path d="M11.6666667,5 L11.0666667,3.79166667 C10.925,3.50833333 10.6333333,3.33333333 10.3166667,3.33333333 L5,3.33333333 C4.54166667,3.33333333 4.16666667,3.70833333 4.16666667,4.16666667 L4.16666667,16.6666667 C4.16666667,17.125 4.54166667,17.5 5,17.5 C5.45833333,17.5 5.83333333,17.125 5.83333333,16.6666667 L5.83333333,11.6666667 L10,11.6666667 L10.6,12.875 C10.7416667,13.1583333 11.0333333,13.3333333 11.3416667,13.3333333 L15.8333333,13.3333333 C16.2916667,13.3333333 16.6666667,12.9583333 16.6666667,12.5 L16.6666667,5.83333333 C16.6666667,5.375 16.2916667,5 15.8333333,5 L11.6666667,5 Z M15,11.6666667 L11.6666667,11.6666667 L10.8333333,10 L5.83333333,10 L5.83333333,5 L10,5 L10.8333333,6.66666667 L15,6.66666667 L15,11.6666667 Z" id="Shape" fill="#F47F22" fill-rule="nonzero"></path>
                    </g>
                </g>
            </g>
        </g>
    </g>
</svg>