<?xml version="1.0" encoding="UTF-8"?>
<svg width="80px" height="80px" viewBox="0 0 80 80" version="1.1" xmlns="http://www.w3.org/2000/svg" xmlns:xlink="http://www.w3.org/1999/xlink">
    <!-- Generator: Sketch 52.2 (67145) - http://www.bohemiancoding.com/sketch -->
    <title>ic_forum_empty</title>
    <desc>Created with Sketch.</desc>
    <g id="Page-1" stroke="none" stroke-width="1" fill="none" fill-rule="evenodd">
        <g id="24-H-Detail-Own-Pustaka-Forum-Empty" transform="translate(-488.000000, -256.000000)">
            <g id="empty" transform="translate(364.000000, 256.000000)">
                <g id="ic_forum_empty" transform="translate(124.000000, 0.000000)">
                    <polygon id="Shape" opacity="0.87" points="0 0 80 0 80 80 0 80"></polygon>
                    <path d="M21.1925212,39.0445186 C19.5434063,39.0445186 18.2049941,37.6785652 18.2049941,35.9955154 C18.2049941,34.310433 19.5434063,32.9465122 21.1925212,32.9465122 L42.8759927,32.9465122 C44.5251077,32.9465122 45.8635198,34.310433 45.8635198,35.9955154 C45.8635198,37.6785652 44.5251077,39.0445186 42.8759927,39.0445186 L21.1925212,39.0445186 Z M21.1925212,49.1235069 C19.5434063,49.1235069 18.2049941,47.7575534 18.2049941,46.0745037 C18.2049941,44.3894212 19.5434063,43.0255005 21.1925212,43.0255005 L42.8759927,43.0255005 C44.5251077,43.0255005 45.8635198,44.3894212 45.8635198,46.0745037 C45.8635198,47.7575534 44.5251077,49.1235069 42.8759927,49.1235069 L21.1925212,49.1235069 Z M67.4623447,0 C74.3754824,0 80,5.74025669 80,12.7956501 L80,37.3441912 C80,44.3995846 74.3754824,50.1398413 67.4623447,50.1398413 L64.0665223,50.1398413 L64.0665223,53.0120023 C64.0665223,60.0673957 58.4420046,65.8076524 51.528867,65.8076524 L35.9558842,65.8076524 C34.9680086,66.5414458 33.2073593,68.2671816 33.2073593,71.22878 C33.2073593,73.4728464 31.4228098,75.2941176 29.2239898,75.2941176 C27.0231782,75.2941176 25.2406204,73.4728464 25.2406204,71.22878 C25.2406204,63.9375971 30.1799985,59.5368691 33.0998083,58.0875763 C33.6435382,57.8172313 34.2370603,57.6769772 34.8425324,57.6769772 L51.528867,57.6769772 C54.0503398,57.6769772 56.0997834,55.585361 56.0997834,53.0120023 L56.0997834,28.4634612 C56.0997834,25.8921352 54.0503398,23.7984863 51.528867,23.7984863 L12.5376553,23.7984863 C10.0161824,23.7984863 7.96673887,25.8921352 7.96673887,28.4634612 L7.96673887,53.0120023 C7.96673887,55.585361 10.0161824,57.6769772 12.5376553,57.6769772 L18.4489755,57.6769772 C20.6477955,57.6769772 22.432345,59.4982484 22.432345,61.7423148 C22.432345,63.9863811 20.6477955,65.8076524 18.4489755,65.8076524 L12.5376553,65.8076524 C5.62451764,65.8076524 0,60.0673957 0,53.0120023 L0,28.4634612 C0,21.4080678 5.62451764,15.6678111 12.5376553,15.6678111 L51.528867,15.6678111 C58.4420046,15.6678111 64.0665223,21.4080678 64.0665223,28.4634612 L64.0665223,42.0091661 L67.4623447,42.0091661 C69.9838176,42.0091661 72.0332611,39.9155172 72.0332611,37.3441912 L72.0332611,12.7956501 C72.0332611,10.2243241 69.9838176,8.1306752 67.4623447,8.1306752 L28.471133,8.1306752 C26.2703214,8.1306752 24.4877636,6.30940395 24.4877636,4.0653376 C24.4877636,1.82127124 26.2703214,0 28.471133,0 L67.4623447,0 Z" id="inactive" fill="#9B9B9B"></path>
                </g>
            </g>
        </g>
    </g>
</svg>