<?xml version="1.0" encoding="UTF-8"?>
<svg width="20px" height="20px" viewBox="0 0 20 20" version="1.1" xmlns="http://www.w3.org/2000/svg" xmlns:xlink="http://www.w3.org/1999/xlink">
    <!-- Generator: Sketch 52.2 (67145) - http://www.bohemiancoding.com/sketch -->
    <title>ic_like</title>
    <desc>Created with Sketch.</desc>
    <g id="Page-1" stroke="none" stroke-width="1" fill="none" fill-rule="evenodd">
        <g id="8-H-Discussion-Detail" transform="translate(-30.000000, -334.000000)">
            <g id="activity-1" transform="translate(20.000000, 116.000000)">
                <g id="ic_like" transform="translate(10.000000, 218.000000)">
                    <polygon id="Shape" opacity="0.87" points="0 0 20 0 20 20 0 20"></polygon>
                    <path d="M15.6512937,3.8801985 C14.3084547,2.71779639 12.1412914,2.1524077 10.0190244,3.96620237 C8.22722305,2.46094177 5.98793139,2.47096913 4.25832238,4.01248248 C2.69284222,5.40705648 1.71322112,8.04733679 2.98135573,10.1935769 C4.94758997,13.5211169 8.20440694,16.2720838 9.3879011,17.0164222 C9.58331012,17.1386789 9.80190326,17.2 10.0204964,17.2 C10.2394575,17.2 10.4584187,17.1386789 10.6534597,17.0160366 C11.0472217,16.768438 11.6367608,16.2516434 12.4526211,15.53623 L13.0668163,14.9989951 C13.3796179,14.7267138 13.4223061,14.2403869 13.1628648,13.9129551 C12.9034234,13.5851377 12.439005,13.5400146 12.1265714,13.8119102 L11.5075921,14.3530019 C10.8875089,14.8971788 10.3413941,15.376178 10.0179204,15.6102782 C8.95991487,14.8948648 6.01700354,12.4011382 4.23293025,9.38136098 C3.42774205,8.01918306 4.09824154,6.17954866 5.21181535,5.18761162 C5.67586576,4.77417597 7.33629041,3.55816606 9.23113228,5.28595686 C9.68230263,5.69784984 10.3623702,5.69707851 10.8124365,5.28364285 C12.628894,3.61331653 14.1454299,4.57787117 14.7136248,5.06959734 C15.8500148,6.05304969 16.5878586,7.98717265 15.7992305,9.39755902 C15.3723483,10.1607952 14.7780252,10.8673382 14.2024702,11.5507412 L13.9051246,11.905941 C13.6375872,12.2272021 13.6692354,12.7143003 13.975781,12.9942949 C14.2823266,13.2742896 14.747113,13.2407365 15.0142824,12.9198611 L15.3064759,12.5712176 C15.9280312,11.8330498 16.5705625,11.069428 17.0695731,10.1773789 C18.2652113,8.0388521 17.2870623,5.29636988 15.6512937,3.8801985" id="Fill-1" fill="#F47F22"></path>
                </g>
            </g>
        </g>
    </g>
</svg>