<?xml version="1.0" encoding="UTF-8"?>
<svg width="20px" height="20px" viewBox="0 0 20 20" version="1.1" xmlns="http://www.w3.org/2000/svg" xmlns:xlink="http://www.w3.org/1999/xlink">
    <!-- Generator: Sketch 52.2 (67145) - http://www.bohemiancoding.com/sketch -->
    <title>ic_link_share</title>
    <desc>Created with Sketch.</desc>
    <g id="Page-1" stroke="none" stroke-width="1" fill="none" fill-rule="evenodd">
        <g id="5-H-Feeds-Web-Detail-Option" transform="translate(-628.000000, -119.000000)">
            <g id="pop_up_share" transform="translate(608.000000, 49.000000)">
                <g id="Group-2" transform="translate(20.000000, 30.000000)">
                    <g id="ic_link_share" transform="translate(0.000000, 40.000000)">
                        <path d="M0,10 C0,4.47715223 4.44717993,0 9.933055,0 C15.4189301,0 19.86611,4.47715223 19.86611,10 C19.86611,15.5228478 15.4189301,20 9.933055,20 C4.44717993,20 0,15.5228478 0,10 Z" id="Mail" fill="#54B9F0"></path>
                        <g id="ic_share" transform="translate(0.000000, 1.000000)">
                            <polygon id="Shape" opacity="0.87" points="0 0 18 0 18 18 0 18"></polygon>
                            <path d="M5.5218426,10.1096278 C4.93245101,10.1096278 4.4527594,9.65279825 4.4527594,9.09149698 C4.4527594,8.5301957 4.93245101,8.07336611 5.5218426,8.07336611 C6.11162737,8.07336611 6.59131898,8.5301957 6.59131898,9.09149698 C6.59131898,9.65279825 6.11162737,10.1096278 5.5218426,10.1096278 Z M11.0056614,6.73320782 L8.07521748,8.45568005 C8.13144362,8.65938112 8.16407838,8.87132009 8.16407838,9.09149698 C8.16407838,10.478836 6.97861099,11.6074298 5.5218426,11.6074298 C4.0650742,11.6074298 2.88,10.478836 2.88,9.09149698 C2.88,7.70415793 4.0650742,6.57556417 5.5218426,6.57556417 C6.17886283,6.57556417 6.77887054,6.80622567 7.241655,7.18554401 L10.1795695,5.45857837 C10.5499544,5.24139709 11.0339711,5.35073663 11.2620212,5.70234564 C11.4900713,6.05432909 11.3752599,6.51565209 11.0056614,6.73320782 Z M13.5987485,5.77749785 C12.7585018,5.77749785 12.0774969,5.12894961 12.0774969,4.32874893 C12.0774969,3.52854824 12.7585018,2.88 13.5987485,2.88 C14.4389952,2.88 15.12,3.52854824 15.12,4.32874893 C15.12,5.12894961 14.4389952,5.77749785 13.5987485,5.77749785 Z M13.5987485,12.2225021 C14.4389952,12.2225021 15.12,12.8710504 15.12,13.6712511 C15.12,14.4714518 14.4389952,15.12 13.5987485,15.12 C12.7585018,15.12 12.0774969,14.4714518 12.0774969,13.6712511 C12.0774969,13.6667577 12.0790697,13.6626387 12.0790697,13.6577709 L8.82542371,11.7458267 C8.45621844,11.528271 8.341407,11.066948 8.56945712,10.7149645 C8.79750723,10.362981 9.28152393,10.2536415 9.65190877,10.4711972 L12.910273,12.386137 C13.1174841,12.2850354 13.3494661,12.2225021 13.5987485,12.2225021 Z" id="Combined-Shape" fill="#FFFFFF"></path>
                        </g>
                        <path d="M19.9415993,10 C19.9415993,15.5228478 15.4944194,20 10.0085443,20 C7.97396319,20 6.0822538,19.3841711 4.50733594,18.3275918 L15.8889229,1.93980368 C18.3467038,3.76021678 19.9415993,6.69259909 19.9415993,10 Z" id="reflec" fill-opacity="0.08" fill="#000000"></path>
                    </g>
                </g>
            </g>
        </g>
    </g>
</svg>