<?xml version="1.0" encoding="UTF-8"?>
<svg width="20px" height="20px" viewBox="0 0 20 20" version="1.1" xmlns="http://www.w3.org/2000/svg" xmlns:xlink="http://www.w3.org/1999/xlink">
    <!-- Generator: Sketch 52.2 (67145) - http://www.bohemiancoding.com/sketch -->
    <title>ic_process_send</title>
    <desc>Created with Sketch.</desc>
    <g id="Page-1" stroke="none" stroke-width="1" fill="none" fill-rule="evenodd">
        <g id="38-H-Inbox-Choose-People" transform="translate(-635.000000, -372.000000)">
            <g id="content" transform="translate(81.000000, 80.000000)">
                <g transform="translate(0.000000, 102.000000)" id="ava">
                    <g transform="translate(0.000000, 180.000000)">
                        <g id="read" transform="translate(554.000000, 10.000000)">
                            <g id="ic_process_send">
                                <g id="Shape">
                                    <path d="M10.3529412,8.83116631 C10.8550982,8.98247142 11.2205882,9.44835699 11.2205882,10 C11.2205882,10.2174941 11.1637744,10.4216576 11.0641705,10.5984666 L13.5294118,12.0611765 L13,12.9294118 L10.1389406,11.2127761 C10.0933434,11.2179371 10.0469827,11.2205882 10,11.2205882 C9.325625,11.2205882 8.77941176,10.674375 8.77941176,10 C8.77941176,9.58869383 8.98259587,9.22506215 9.29411765,9.00395139 L9.29411765,6.47058824 L10.3529412,6.47058824 L10.3529412,8.83116631 Z M9.99294118,2.94117647 C13.8964706,2.94117647 17.0588235,6.10352941 17.0588235,10 C17.0588235,13.8964706 13.8964706,17.0588235 9.99294118,17.0588235 C6.09647059,17.0588235 2.94117647,13.8964706 2.94117647,10 C2.94117647,6.10352941 6.09647059,2.94117647 9.99294118,2.94117647 Z M10,15.6470588 C13.12,15.6470588 15.6470588,13.12 15.6470588,10 C15.6470588,6.88 13.12,4.35294118 10,4.35294118 C6.88,4.35294118 4.35294118,6.88 4.35294118,10 C4.35294118,13.12 6.88,15.6470588 10,15.6470588 Z" id="Combined-Shape" fill="#F47F22"></path>
                                    <polygon points="0 0 20 0 20 20 0 20"></polygon>
                                </g>
                            </g>
                        </g>
                    </g>
                </g>
            </g>
        </g>
    </g>
</svg>