<?xml version="1.0" encoding="UTF-8"?>
<svg width="20px" height="20px" viewBox="0 0 20 20" version="1.1" xmlns="http://www.w3.org/2000/svg" xmlns:xlink="http://www.w3.org/1999/xlink">
    <!-- Generator: Sketch 52.2 (67145) - http://www.bohemiancoding.com/sketch -->
    <title>ic_share_inactive</title>
    <desc>Created with Sketch.</desc>
    <g id="Page-1" stroke="none" stroke-width="1" fill="none" fill-rule="evenodd">
        <g id="10-H-Detail-Publik-Pustaka-Activity" transform="translate(-344.000000, -520.000000)">
            <g id="card_activity" transform="translate(274.000000, 70.000000)">
                <g id="ic_share_inactive" transform="translate(70.000000, 450.000000)">
                    <polygon id="Shape" opacity="0.87" points="0 0 20 0 20 20 0 20"></polygon>
                    <path d="M6.13538066,11.2329198 C5.48050112,11.2329198 4.94751044,10.7253314 4.94751044,10.1016633 C4.94751044,9.47799522 5.48050112,8.97040679 6.13538066,8.97040679 C6.79069708,8.97040679 7.32368776,9.47799522 7.32368776,10.1016633 C7.32368776,10.7253314 6.79069708,11.2329198 6.13538066,11.2329198 Z M12.2285127,7.48134203 L8.97246386,9.39520006 C9.03493736,9.62153457 9.0711982,9.85702232 9.0711982,10.1016633 C9.0711982,11.6431511 7.75401221,12.8971442 6.13538066,12.8971442 C4.51674912,12.8971442 3.2,11.6431511 3.2,10.1016633 C3.2,8.56017548 4.51674912,7.30618241 6.13538066,7.30618241 C6.86540315,7.30618241 7.53207838,7.56247296 8.04628333,7.98393779 L11.3106328,6.06508708 C11.7221715,5.82377455 12.2599679,5.94526293 12.5133569,6.3359396 C12.7667459,6.72703233 12.6391776,7.23961343 12.2285127,7.48134203 Z M15.1097205,6.41944206 C14.1761131,6.41944206 13.4194411,5.6988329 13.4194411,4.80972103 C13.4194411,3.92060916 14.1761131,3.2 15.1097205,3.2 C16.043328,3.2 16.8,3.92060916 16.8,4.80972103 C16.8,5.6988329 16.043328,6.41944206 15.1097205,6.41944206 Z M15.1097205,13.5805579 C16.043328,13.5805579 16.8,14.3011671 16.8,15.190279 C16.8,16.0793908 16.043328,16.8 15.1097205,16.8 C14.1761131,16.8 13.4194411,16.0793908 13.4194411,15.190279 C13.4194411,15.1852863 13.4211886,15.1807097 13.4211886,15.175301 L9.80602634,13.0509185 C9.39579827,12.8091899 9.26823,12.2966088 9.52161902,11.9055161 C9.77500803,11.5144234 10.3128044,11.392935 10.7243431,11.6346636 L14.3447478,13.7623745 C14.5749823,13.6500393 14.8327401,13.5805579 15.1097205,13.5805579 Z" id="Combined-Shape" fill="#9B9B9B"></path>
                </g>
            </g>
        </g>
    </g>
</svg>