<?xml version="1.0" encoding="UTF-8"?>
<svg width="30px" height="30px" viewBox="0 0 30 30" version="1.1" xmlns="http://www.w3.org/2000/svg" xmlns:xlink="http://www.w3.org/1999/xlink">
    <!-- Generator: Sketch 52.2 (67145) - http://www.bohemiancoding.com/sketch -->
    <title>ic_url_icon</title>
    <desc>Created with Sketch.</desc>
    <g id="Page-1" stroke="none" stroke-width="1" fill="none" fill-rule="evenodd">
        <g id="93-H-Upload-URL-In-Progess" transform="translate(-20.000000, -165.000000)">
            <g id="Group" transform="translate(20.000000, 165.000000)">
                <g id="item-1">
                    <g id="ic_url_icon">
                        <g id="shape">
                            <polygon id="Shape" points="0 0 30 0 30 30 0 30"></polygon>
                            <path d="M15,2.5 C8.1,2.5 2.5,8.1 2.5,15 C2.5,21.9 8.1,27.5 15,27.5 C21.9,27.5 27.5,21.9 27.5,15 C27.5,8.1 21.9,2.5 15,2.5 Z M13.75,24.9125 C8.8125,24.3 5,20.1 5,15 C5,14.225 5.1,13.4875 5.2625,12.7625 L11.25,18.75 L11.25,20 C11.25,21.375 12.375,22.5 13.75,22.5 L13.75,24.9125 Z M22.375,21.7375 C22.05,20.725 21.125,20 20,20 L18.75,20 L18.75,16.25 C18.75,15.5625 18.1875,15 17.5,15 L10,15 L10,12.5 L12.5,12.5 C13.1875,12.5 13.75,11.9375 13.75,11.25 L13.75,8.75 L16.25,8.75 C17.625,8.75 18.75,7.625 18.75,6.25 L18.75,5.7375 C22.4125,7.225 25,10.8125 25,15 C25,17.6 24,19.9625 22.375,21.7375 Z" id="Shape" fill="#F47F22"></path>
                        </g>
                    </g>
                </g>
            </g>
        </g>
    </g>
</svg>