<?xml version="1.0" encoding="UTF-8"?>
<svg width="24px" height="24px" viewBox="0 0 24 24" version="1.1" xmlns="http://www.w3.org/2000/svg" xmlns:xlink="http://www.w3.org/1999/xlink">
    <!-- Generator: Sketch 52.2 (67145) - http://www.bohemiancoding.com/sketch -->
    <title>ic_uniquecode</title>
    <desc>Created with Sketch.</desc>
    <g id="Page-1" stroke="none" stroke-width="1" fill="none" fill-rule="evenodd">
        <g id="39-H-Detail-Inbox-Triger" transform="translate(-105.000000, -658.000000)">
            <g id="content" transform="translate(81.000000, 80.000000)">
                <g id="Group-6" transform="translate(0.000000, 112.000000)">
                    <g id="input" transform="translate(0.000000, 444.000000)">
                        <g id="ic_uniquecode" transform="translate(24.000000, 22.000000)">
                            <g id="Group">
                                <path d="M13,7 L11,7 L11,11 L7,11 L7,13 L11,13 L11,17 L13,17 L13,13 L17,13 L17,11 L13,11 L13,7 L13,7 Z M12,2 C6.49,2 2,6.49 2,12 C2,17.51 6.49,22 12,22 L20,22 C21.1,22 22,21.1 22,20 L22,12 C22,6.49 17.51,2 12,2 L12,2 Z M12,20 C7.59,20 4,16.41 4,12 C4,7.59 7.59,4 12,4 C16.41,4 20,7.59 20,12 C20,16.41 16.41,20 12,20 L12,20 Z" id="Shape" fill="#4A4A4A"></path>
                                <polygon id="Shape" points="0 0 24 0 24 24 0 24"></polygon>
                            </g>
                        </g>
                    </g>
                </g>
            </g>
        </g>
    </g>
</svg>